<?xml version="1.0" standalone="no"?>
<!DOCTYPE svg PUBLIC "-//W3C//DTD SVG 20010904//EN"
 "http://www.w3.org/TR/2001/REC-SVG-20010904/DTD/svg10.dtd">
<svg version="1.0" xmlns="http://www.w3.org/2000/svg"
 width="1304.000000pt" height="1304.000000pt" viewBox="0 0 1304.000000 1304.000000"
 preserveAspectRatio="xMidYMid meet">

<g transform="translate(0.000000,1304.000000) scale(0.100000,-0.100000)"
fill="#000000" stroke="none">
<path d="M6117 12997 c-19 -25 -40 -38 -83 -50 -38 -11 -62 -13 -68 -7 -13 13
-53 13 -61 0 -3 -5 -16 -10 -29 -10 -12 0 -27 -5 -33 -11 -5 -5 -25 -12 -43
-14 -19 -3 -40 -11 -47 -18 -11 -10 -28 -12 -76 -5 -83 11 -111 4 -158 -44
-35 -35 -44 -40 -76 -36 -21 3 -49 -1 -63 -9 -31 -16 -48 -16 -106 -2 -33 9
-44 16 -44 31 0 15 -3 17 -19 8 -11 -5 -32 -10 -46 -10 -15 0 -39 -9 -54 -19
-15 -11 -50 -25 -77 -32 -69 -17 -192 -78 -213 -106 -12 -14 -29 -23 -47 -23
-15 0 -37 -8 -48 -19 -12 -10 -50 -34 -86 -53 -36 -19 -85 -48 -109 -66 -24
-17 -68 -41 -98 -52 -31 -11 -65 -27 -77 -35 -11 -8 -28 -15 -38 -15 -10 0
-18 -6 -18 -13 0 -23 -33 -46 -72 -51 -36 -4 -102 -41 -149 -83 -15 -14 -41
-25 -65 -27 -21 -2 -57 -15 -78 -30 -22 -15 -45 -25 -52 -22 -6 2 -26 -15 -43
-40 -18 -24 -40 -44 -50 -44 -10 0 -47 -30 -83 -67 -36 -38 -85 -85 -109 -106
-90 -77 -113 -103 -132 -147 -25 -56 -87 -104 -102 -80 -13 21 -23 8 -29 -41
-4 -28 -18 -76 -32 -106 -13 -31 -27 -74 -30 -97 -4 -23 -12 -50 -17 -61 -6
-11 -14 -42 -18 -70 -7 -50 -15 -79 -52 -170 -16 -39 -20 -71 -19 -143 1 -78
-2 -93 -14 -88 -8 3 -21 9 -29 12 -18 8 -21 -27 -3 -55 14 -23 -12 -62 -54
-80 -15 -7 -30 -20 -33 -30 -3 -10 -19 -32 -36 -49 -24 -25 -33 -44 -39 -89
-4 -32 -14 -71 -23 -88 -9 -16 -17 -36 -17 -42 0 -7 -4 -13 -10 -13 -5 0 -13
-12 -16 -27 -4 -16 -11 -33 -15 -39 -18 -22 -51 -130 -59 -189 -4 -33 -12 -72
-18 -86 -6 -14 -13 -53 -15 -85 -3 -32 -10 -70 -15 -84 -6 -14 -15 -58 -21
-97 -6 -40 -23 -108 -37 -150 -40 -122 -53 -178 -47 -202 9 -34 -26 -435 -47
-543 -11 -54 -27 -112 -35 -129 -13 -24 -14 -34 -4 -45 13 -16 4 -111 -13
-132 -8 -9 -8 -16 0 -24 18 -18 15 -41 -19 -173 -29 -114 -31 -131 -34 -345
-3 -240 -11 -357 -28 -377 -6 -9 -6 -17 2 -26 6 -8 8 -17 5 -20 -3 -3 -6 -71
-5 -150 0 -140 10 -215 36 -267 16 -33 8 -89 -18 -117 -17 -19 -19 -31 -14
-79 6 -60 -11 -104 -39 -104 -8 0 -23 -6 -34 -12 -17 -11 -22 -10 -30 2 -7 12
-12 12 -29 -4 -12 -11 -21 -24 -21 -31 0 -6 -12 -22 -26 -36 -26 -24 -26 -25
-21 -134 6 -107 11 -148 24 -190 3 -11 7 -36 8 -55 2 -19 7 -47 13 -61 6 -14
9 -42 7 -62 -2 -20 3 -43 11 -54 7 -10 14 -41 14 -69 0 -32 5 -56 14 -63 8 -7
17 -28 21 -49 9 -52 27 -104 42 -123 7 -8 13 -26 13 -40 0 -17 3 -20 9 -10 11
17 19 4 26 -42 3 -19 18 -59 32 -89 14 -29 26 -62 25 -72 -1 -11 8 -26 18 -33
11 -8 20 -26 20 -41 1 -31 24 -67 39 -58 5 3 12 -8 16 -25 4 -17 13 -42 21
-57 8 -15 14 -34 14 -44 0 -9 5 -18 11 -20 6 -2 12 -16 12 -30 -1 -15 6 -29
14 -32 8 -3 11 -10 8 -16 -3 -6 1 -13 10 -16 13 -6 14 -8 3 -15 -17 -11 -1
-40 30 -54 13 -6 20 -16 17 -25 -3 -9 4 -32 15 -53 11 -20 20 -46 20 -57 0
-11 5 -20 10 -20 6 0 10 -8 10 -18 0 -10 13 -31 30 -47 16 -16 28 -31 25 -33
-8 -9 26 -34 39 -29 15 6 30 103 29 182 -1 47 1 52 37 78 40 28 60 34 60 17 0
-6 8 -23 18 -38 15 -22 18 -42 14 -105 -3 -64 -6 -76 -17 -67 -22 18 -28 -7
-6 -27 10 -10 26 -45 34 -78 15 -59 15 -60 -6 -77 l-22 -17 26 -28 c15 -15 32
-44 37 -63 6 -19 16 -49 21 -66 13 -45 5 -246 -11 -259 -7 -5 -14 -28 -16 -51
l-3 -41 68 -32 c99 -47 97 -45 112 -77 8 -16 18 -37 23 -46 4 -10 8 -34 8 -54
0 -19 5 -45 12 -57 7 -12 13 -53 14 -92 3 -91 18 -156 38 -167 12 -7 16 -24
16 -63 0 -30 5 -57 11 -60 5 -4 8 -12 6 -18 -2 -7 2 -27 9 -46 8 -18 11 -44 8
-57 -3 -13 -2 -24 4 -24 5 0 13 -21 17 -47 3 -27 15 -66 25 -88 19 -44 65
-178 82 -240 6 -22 26 -87 43 -145 36 -114 51 -219 41 -276 -5 -26 -23 -50
-68 -92 -33 -31 -72 -77 -86 -102 -14 -25 -38 -61 -54 -80 -15 -19 -28 -40
-28 -46 0 -6 -9 -19 -19 -28 -11 -10 -22 -29 -26 -44 -3 -14 -19 -42 -35 -61
-22 -28 -39 -39 -81 -48 -57 -13 -104 -8 -129 12 -32 26 -147 83 -192 95 -32
8 -72 10 -117 6 -53 -5 -78 -3 -107 9 -23 10 -84 18 -159 22 -120 6 -123 5
-173 -22 -29 -16 -52 -32 -52 -37 0 -4 -7 -8 -15 -8 -8 0 -15 -4 -15 -10 0 -5
-31 -25 -69 -45 -38 -19 -95 -53 -127 -75 -32 -23 -95 -59 -140 -80 -81 -40
-184 -131 -184 -163 0 -20 319 -330 495 -481 747 -640 1650 -1110 2604 -1357
135 -35 434 -99 461 -99 18 0 -3 32 -26 41 -14 5 -24 17 -24 28 0 13 -9 21
-34 25 -18 4 -41 4 -50 0 -11 -4 -16 -1 -16 10 0 9 -4 16 -8 16 -19 0 -100 62
-105 79 -3 12 -15 21 -33 23 -24 2 -28 7 -26 26 3 18 -1 22 -25 22 -55 0 -78
43 -58 108 9 27 -12 30 -31 5 -18 -25 -32 -8 -39 47 -14 114 -15 110 14 110
21 0 23 2 11 11 -11 8 -5 9 26 6 57 -6 76 5 61 38 -7 14 -16 25 -20 25 -5 0
-6 -4 -2 -9 3 -5 1 -12 -4 -15 -5 -4 -13 -1 -17 5 -4 6 1 16 10 21 9 5 16 20
16 33 0 16 6 25 16 25 11 0 14 -5 10 -16 -4 -11 1 -18 15 -21 14 -4 19 -11 16
-25 -4 -16 -3 -17 9 -7 7 6 21 8 30 5 14 -5 15 -4 5 8 -9 11 -8 15 5 20 22 8
24 8 24 -8 0 -19 47 -26 61 -10 8 10 8 14 1 14 -6 0 -10 9 -9 20 1 12 7 18 14
16 8 -3 13 2 13 14 0 23 22 26 39 6 8 -10 9 -16 1 -21 -17 -11 -11 -22 20 -35
17 -7 30 -19 30 -26 0 -17 4 -17 53 -3 35 9 37 12 24 27 -8 9 -12 24 -9 32 3
12 2 12 -8 3 -20 -18 -42 -5 -28 17 16 25 48 8 48 -25 0 -23 4 -25 45 -25 35
0 45 -4 45 -16 0 -9 -9 -18 -20 -21 -25 -7 -28 -46 -2 -41 10 2 16 11 14 21
-2 9 2 17 8 18 37 3 68 1 90 -6 14 -4 37 -8 52 -7 20 0 28 -4 28 -17 0 -9 13
-24 29 -34 31 -18 61 -22 61 -9 0 20 27 43 43 36 21 -8 22 -37 2 -54 -24 -20
-18 -30 18 -28 17 1 39 0 47 -3 11 -3 15 4 15 25 0 16 5 31 10 33 13 4 39 -82
30 -97 -10 -16 23 -38 68 -45 27 -5 37 -11 33 -21 -3 -9 2 -14 14 -14 13 0 20
7 20 20 0 11 -7 20 -15 20 -8 0 -15 9 -15 20 0 28 24 25 44 -5 19 -29 42 -34
31 -7 -20 47 -19 55 4 49 18 -4 20 -3 11 8 -8 9 -8 15 -1 20 6 3 16 -7 23 -22
17 -40 38 -63 58 -63 13 0 17 8 16 36 -1 22 4 39 12 41 9 4 11 -5 6 -34 -4
-30 -2 -42 11 -53 13 -11 18 -11 24 -2 4 7 15 10 24 6 9 -3 14 -10 11 -15 -3
-5 5 -9 18 -10 13 0 40 -1 60 -3 34 -3 38 0 43 26 4 15 13 28 22 28 11 0 14
-11 11 -52 -3 -49 -1 -53 19 -54 33 -2 47 19 33 47 -10 17 -9 23 1 30 20 13
52 11 74 -4 32 -22 65 -27 65 -11 0 8 -4 14 -10 14 -5 0 -10 4 -10 9 0 5 8 7
19 4 25 -6 39 -41 34 -81 -4 -21 -1 -32 7 -32 8 0 10 -8 7 -21 -4 -16 -2 -19
11 -15 13 5 12 2 -3 -9 -24 -19 -39 -15 -43 14 -3 15 -8 21 -18 17 -12 -5 -14
-1 -8 17 4 12 10 23 15 25 4 2 5 10 2 17 -3 11 -10 12 -22 5 -12 -6 -22 -5
-29 2 -8 8 -16 6 -28 -7 -13 -13 -14 -19 -5 -24 7 -5 12 -14 11 -22 -4 -27 0
-37 18 -41 18 -5 28 -48 11 -48 -6 0 -8 -4 -5 -9 8 -12 56 -1 56 13 0 6 16 16
35 22 29 9 33 9 24 -3 -7 -7 -9 -17 -5 -20 7 -7 112 24 132 39 6 5 19 5 28 2
19 -7 61 30 51 46 -4 6 5 10 20 10 21 0 26 -4 21 -16 -3 -9 -6 -18 -6 -20 0
-2 -9 -4 -20 -4 -27 0 -25 -14 4 -28 34 -15 45 -89 16 -109 -44 -31 -14 -51
63 -43 14 1 18 -4 15 -22 -2 -14 5 -30 17 -40 11 -9 17 -20 13 -24 -4 -4 -14
-2 -22 5 -11 9 -15 7 -19 -11 -4 -12 -4 -24 -1 -27 5 -6 62 26 82 46 18 17 42
17 42 -1 0 -7 11 -16 25 -18 19 -4 25 -1 25 13 0 11 5 19 10 19 6 0 10 -7 10
-16 0 -22 23 -12 35 14 11 24 20 28 30 12 3 -5 13 -10 22 -10 13 0 13 3 3 15
-17 20 -8 27 20 17 15 -6 19 -11 12 -16 -9 -5 -9 -13 -2 -27 12 -22 40 -26 40
-5 0 16 34 31 50 21 5 -3 10 -1 10 6 0 7 -11 10 -30 7 -16 -3 -30 -1 -30 4 0
4 5 8 11 8 14 0 73 51 76 65 4 15 -47 26 -69 14 -11 -6 -18 -6 -18 0 0 13 55
24 79 16 15 -4 21 0 24 17 3 18 5 16 6 -8 1 -41 29 -53 53 -24 23 28 23 48 1
73 -17 19 -17 19 6 12 22 -7 23 -5 19 19 -7 37 12 33 49 -9 17 -19 37 -35 43
-35 10 0 10 3 0 14 -6 8 -10 25 -8 38 3 23 16 27 62 17 14 -3 20 3 23 24 4 31
-3 34 -35 11 -18 -12 -26 -13 -37 -4 -24 20 -17 30 20 30 19 0 35 5 35 10 0 6
5 10 11 10 6 0 25 7 42 14 18 8 46 16 62 18 25 2 31 8 33 32 3 23 0 28 -13 23
-9 -4 -23 -3 -33 2 -9 5 -25 12 -35 15 -10 3 -15 11 -12 17 5 8 10 8 18 0 19
-19 117 -10 117 10 0 5 -11 11 -24 15 -55 14 -24 96 46 118 36 12 49 46 27 72
-10 12 -9 18 3 30 20 20 48 7 48 -21 0 -23 1 -23 30 -8 42 21 56 50 35 73 -12
14 -13 20 -4 26 7 4 17 0 25 -10 7 -10 17 -15 22 -12 14 8 24 -22 13 -42 -11
-21 -8 -65 5 -69 5 -2 14 11 19 29 7 23 18 34 39 40 16 4 33 13 37 19 5 9 13
8 33 -4 14 -9 31 -17 39 -17 7 0 17 -18 23 -42 8 -37 13 -43 37 -46 15 -2 27
-8 27 -13 0 -5 -12 -8 -27 -7 -18 2 -28 -2 -28 -11 0 -18 -21 -26 -30 -12 -9
15 -22 13 -29 -4 -3 -8 -2 -14 2 -13 13 5 82 -77 82 -97 0 -3 -8 -5 -17 -5
-27 -1 -69 -41 -77 -73 -8 -34 7 -36 22 -2 15 32 28 32 34 0 4 -17 -2 -33 -19
-51 -19 -20 -21 -29 -12 -40 9 -11 7 -15 -7 -21 -10 -4 -19 -2 -22 5 -4 12
-32 17 -32 7 0 -3 7 -21 14 -40 13 -29 20 -35 48 -36 28 -1 24 -3 -20 -13 -29
-6 -53 -14 -53 -18 1 -5 1 -13 1 -19 0 -7 10 -9 25 -5 30 8 35 -17 8 -34 -16
-10 -16 -10 2 -6 11 3 58 15 105 26 122 31 440 138 616 208 300 120 592 261
864 417 139 80 455 284 523 337 38 30 38 31 17 45 -27 19 -22 58 22 153 17 37
35 101 43 150 l13 85 -33 75 c-47 109 -66 136 -119 172 -26 17 -50 37 -53 45
-3 7 -13 13 -22 13 -16 0 -22 3 -121 57 -30 17 -66 34 -79 38 -21 6 -88 63
-139 118 -9 10 -36 37 -59 61 -22 24 -49 61 -59 83 -16 36 -149 172 -168 173
-5 0 -23 15 -40 33 -35 38 -130 117 -140 117 -4 0 -24 13 -44 29 -20 16 -48
32 -62 36 -34 10 -60 34 -60 57 0 22 13 46 65 118 22 30 48 72 57 93 10 22 31
59 48 83 16 25 30 51 30 58 0 17 28 75 52 105 10 13 18 32 18 43 0 10 9 29 21
41 11 13 18 30 15 41 -5 20 15 69 43 99 9 11 16 39 17 64 1 25 7 49 14 53 7 4
10 15 7 23 -3 8 3 29 14 47 11 17 22 49 24 70 4 45 19 75 40 83 8 4 12 13 9
22 -4 8 1 27 10 41 10 14 16 33 15 42 -2 24 12 81 22 88 5 3 9 15 9 27 0 12 7
31 15 41 8 11 15 37 15 57 0 21 5 41 10 44 6 3 10 15 10 25 0 35 40 89 76 102
20 7 33 17 30 24 -3 7 2 18 10 24 16 14 19 76 4 85 -12 8 -13 65 -1 65 5 0 12
23 16 50 5 34 12 50 21 50 19 0 36 45 28 75 -8 32 4 65 24 65 11 0 13 3 5 8
-6 4 -12 19 -12 35 -1 15 -1 39 -2 53 -1 18 8 34 27 49 23 18 26 27 21 52 -4
23 -2 33 9 37 13 5 13 10 -1 42 -19 46 -19 71 0 108 8 15 15 35 15 42 0 8 4
14 10 14 5 0 16 12 23 27 14 26 15 26 21 5 12 -36 15 -151 5 -184 -5 -17 -14
-35 -21 -39 -9 -6 -7 -14 10 -31 18 -20 21 -32 17 -70 -4 -38 -1 -49 19 -67
l23 -21 18 20 c10 11 25 20 33 20 8 0 12 6 8 15 -4 11 2 15 27 15 25 0 29 3
17 10 -13 9 -13 12 3 21 9 6 15 14 12 19 -3 5 4 11 15 15 22 7 22 41 -1 56 -9
5 -10 9 -2 9 7 0 24 11 39 25 15 14 31 25 37 25 5 0 7 11 5 25 -3 14 -1 25 3
25 5 0 9 12 9 26 0 14 4 23 9 20 9 -6 26 40 22 62 -1 6 2 12 7 12 5 0 17 18
28 40 10 22 27 43 37 46 12 4 17 16 17 41 0 26 4 34 14 30 9 -4 12 0 9 12 -2
10 5 34 16 54 17 30 18 37 6 37 -18 0 -18 7 -3 51 15 45 48 89 66 89 11 0 12
3 3 13 -8 10 -7 17 1 25 8 8 8 16 -3 28 -9 12 -10 15 -1 10 8 -5 12 0 12 13 0
12 5 21 11 21 8 0 9 17 4 55 -6 49 -4 55 12 55 17 1 17 1 -1 15 -11 8 -16 18
-13 22 4 3 7 3 7 -2 0 -4 9 0 20 10 11 10 20 26 20 36 0 10 7 25 16 34 9 9 17
28 19 43 1 15 13 50 27 79 17 35 22 54 14 57 -7 3 -6 8 5 15 10 6 16 26 17 53
1 24 7 45 12 46 14 5 12 31 -3 47 -17 17 -14 139 4 161 11 14 10 18 -6 30 -16
12 -17 17 -6 37 11 21 9 127 -4 147 -3 4 -7 27 -10 50 -3 24 -9 48 -13 54 -4
6 -7 29 -8 51 -1 22 -8 55 -16 74 -12 26 -13 43 -6 68 11 40 -3 64 -35 60 -19
-2 -22 3 -21 35 1 29 -3 39 -17 43 -15 5 -19 16 -19 51 0 40 -2 44 -25 44 -15
0 -31 9 -41 25 -9 14 -30 29 -48 33 -33 9 -47 42 -27 66 6 8 9 21 5 29 -3 9 1
26 10 39 19 27 21 59 4 76 -9 9 -9 18 0 37 17 36 15 48 -6 42 -23 -5 -21 -25
-26 303 -5 302 -21 558 -41 655 -8 42 -11 83 -7 100 8 30 2 100 -23 250 -21
126 -25 177 -31 365 -3 91 -12 201 -20 245 -29 145 -35 199 -29 254 4 38 2 57
-7 63 -10 8 -10 11 0 15 15 6 16 39 2 48 -6 4 -10 23 -9 43 2 61 -28 264 -45
304 -9 21 -16 57 -16 81 0 40 -23 128 -40 152 -4 6 -13 38 -20 72 -9 45 -20
69 -42 90 -33 31 -82 129 -74 148 3 8 -8 15 -29 19 -37 7 -75 47 -75 77 0 15
-8 19 -37 19 -50 0 -69 12 -48 30 22 18 19 30 -9 30 -13 0 -29 6 -36 14 -6 8
-21 16 -32 18 -19 3 -14 11 36 72 52 63 70 106 46 106 -11 0 -13 43 -4 78 4
13 13 21 22 20 34 -6 19 50 -16 64 -6 2 -5 34 0 76 6 41 7 77 3 80 -4 4 -10 1
-12 -5 -7 -20 -27 -15 -52 11 -16 17 -20 30 -16 49 5 19 2 28 -14 37 -12 6
-21 19 -21 29 0 10 -9 21 -20 24 -11 3 -25 19 -31 37 -7 20 -16 29 -25 26 -9
-4 -22 13 -38 48 -13 29 -36 60 -50 69 -14 10 -26 26 -26 35 0 27 -43 63 -101
83 -28 10 -63 26 -76 34 -26 18 -47 61 -39 82 3 7 2 13 -3 13 -4 0 -20 23 -35
52 -24 46 -26 59 -21 114 l7 61 -32 5 c-23 4 -35 0 -45 -15 -13 -19 -15 -19
-57 17 -37 32 -47 36 -78 31 -33 -6 -38 -3 -120 82 -101 103 -109 110 -147
119 -38 10 -73 32 -104 69 -27 30 -27 30 -119 27 -91 -2 -92 -2 -118 28 -15
16 -32 30 -38 30 -7 0 -26 14 -42 30 -18 17 -41 30 -56 30 -13 0 -28 5 -31 10
-3 6 -17 10 -30 10 -12 0 -25 7 -29 15 -4 11 -21 15 -65 15 -60 0 -61 0 -80
39 -24 46 -56 60 -132 58 -65 -2 -129 26 -129 55 0 10 -4 18 -8 18 -5 0 -18 9
-31 21 l-22 21 -23 -21 c-23 -22 -61 -28 -70 -12 -4 5 -24 12 -45 16 -22 3
-47 12 -57 19 -12 10 -26 10 -49 4 -25 -8 -38 -6 -68 11 -21 12 -53 21 -71 21
-20 0 -36 6 -39 14 -8 19 -75 30 -93 15 -15 -12 -111 -4 -237 21 -64 13 -179
12 -302 -2 -55 -6 -139 -10 -187 -9 -65 2 -94 -2 -119 -14 -27 -14 -45 -16
-98 -9 -37 4 -97 7 -135 6 l-68 -2 4 30 c6 39 -4 38 -35 -3z m-472 -307 c0
-20 -32 -37 -45 -24 -8 8 -7 16 6 28 18 19 39 17 39 -4z m-877 -272 c-3 -7
-15 -14 -29 -16 -24 -4 -24 -3 -4 12 24 19 38 20 33 4z m620 -6 c2 -7 -2 -10
-12 -6 -9 3 -16 11 -16 16 0 13 23 5 28 -10z m-188 -22 c0 -5 -4 -10 -10 -10
-5 0 -10 5 -10 10 0 6 5 10 10 10 6 0 10 -4 10 -10z m-1325 -460 c3 -5 2 -10
-4 -10 -5 0 -13 5 -16 10 -3 6 -2 10 4 10 5 0 13 -4 16 -10z m-475 -270 c0 -5
-4 -10 -10 -10 -5 0 -10 5 -10 10 0 6 5 10 10 10 6 0 10 -4 10 -10z m-427
-1374 c3 -7 -5 -31 -19 -52 l-23 -39 -1 33 c0 53 30 94 43 58z m2023 -715 c15
-14 93 -20 97 -8 2 8 14 6 38 -3 19 -8 54 -15 79 -16 25 -1 48 -2 52 -3 4 -1
16 -18 27 -39 22 -42 81 -92 66 -56 -4 11 -10 28 -13 39 -3 11 -10 23 -15 26
-13 9 13 43 36 47 9 2 17 -1 17 -6 0 -5 30 -9 68 -8 58 2 73 -2 110 -26 24
-15 47 -28 53 -28 5 0 20 -7 33 -15 16 -11 33 -14 52 -8 35 9 61 6 91 -9 17
-8 33 -8 60 0 22 7 41 8 47 2 5 -5 19 -5 34 1 20 8 29 7 37 -4 5 -7 27 -14 48
-15 21 -1 49 -10 64 -22 27 -21 73 -27 73 -9 0 6 8 8 19 4 13 -4 30 4 53 23
36 32 118 49 118 25 0 -7 8 -13 18 -13 11 0 38 -13 60 -30 23 -16 48 -30 57
-30 18 0 37 -34 29 -54 -3 -9 -1 -16 5 -16 6 0 11 5 11 11 0 6 9 22 20 36 24
31 26 26 37 -82 l8 -80 30 2 c60 4 134 20 148 32 12 10 22 9 50 -2 21 -9 40
-11 48 -6 20 12 63 11 76 -2 8 -8 17 -8 31 0 10 6 23 7 27 3 3 -4 12 0 18 8 7
8 31 25 55 37 33 17 42 19 42 7 0 -25 77 -21 102 6 18 19 58 17 58 -4 0 -6 6
-4 13 5 31 41 97 51 120 19 14 -21 27 -22 140 -16 31 1 60 6 63 9 4 3 21 0 40
-8 28 -12 34 -11 45 1 17 20 39 17 39 -6 0 -13 7 -20 20 -20 11 0 20 4 20 8 0
4 20 13 45 20 31 8 45 17 46 29 0 10 6 4 12 -14 16 -43 20 -45 51 -34 22 9 26
8 26 -8 0 -11 3 -26 6 -35 8 -21 90 -76 114 -76 10 0 22 -4 25 -10 12 -20 36
-11 33 13 -2 15 -9 21 -20 19 -25 -4 -22 10 7 31 24 18 25 17 25 -3 0 -17 4
-20 20 -15 15 5 20 2 20 -14 0 -11 -7 -21 -16 -23 -14 -3 -13 -7 5 -30 12 -14
21 -37 21 -51 0 -16 14 -37 41 -61 23 -20 46 -36 50 -36 5 0 9 -6 9 -12 0 -7
11 -26 23 -42 17 -21 28 -27 38 -20 20 13 58 12 63 -2 2 -6 14 -14 25 -17 18
-4 21 -1 21 24 0 34 12 37 40 9 25 -25 25 -30 1 -30 -22 0 -23 -36 -1 -51 12
-9 10 -10 -7 -6 -19 4 -23 1 -23 -19 0 -13 4 -24 10 -24 5 0 7 -7 4 -15 -6
-14 0 -18 61 -41 30 -11 55 -12 61 -3 3 5 16 9 30 9 23 0 24 -2 18 -40 -6 -39
-6 -40 24 -40 23 0 37 8 54 30 24 33 26 34 48 20 12 -8 12 -12 2 -18 -7 -5
-10 -16 -7 -24 5 -13 18 -15 61 -13 59 4 65 -10 8 -21 -19 -3 -33 -11 -32 -18
4 -21 -13 -56 -28 -56 -25 0 15 -49 45 -56 14 -3 38 -12 52 -19 14 -8 44 -15
67 -16 35 -2 41 -6 37 -20 -3 -10 0 -21 8 -26 15 -9 71 -91 73 -108 1 -5 2
-14 3 -19 0 -5 10 -1 20 8 19 17 20 17 36 -8 14 -20 21 -24 35 -16 11 6 21 6
24 2 9 -16 19 -67 18 -99 0 -25 4 -33 17 -33 9 0 22 5 29 12 9 9 12 7 12 -11
0 -29 30 -81 47 -81 17 0 16 -15 -2 -34 -19 -19 -19 -26 1 -26 14 0 14 -3 4
-15 -7 -8 -9 -15 -6 -15 4 0 2 -9 -4 -20 -10 -19 -9 -20 12 -15 21 5 23 3 22
-22 -1 -15 -3 -28 -4 -28 -1 0 -3 -12 -5 -27 -4 -27 17 -54 33 -44 6 3 17 -5
26 -19 9 -14 22 -25 30 -25 7 0 13 -6 13 -14 0 -17 -34 -29 -43 -15 -9 15 -21
10 -27 -11 -3 -11 -12 -20 -21 -20 -12 0 -16 -10 -16 -34 0 -19 -5 -38 -10
-41 -6 -3 -7 -17 -4 -30 6 -24 -7 -32 -59 -39 -12 -2 -30 -7 -40 -11 -10 -4
-20 -5 -24 -2 -3 4 -13 -4 -23 -15 -17 -21 -19 -21 -43 -5 -16 10 -27 12 -29
6 -2 -7 -14 -5 -33 4 -46 23 -98 37 -136 37 -20 0 -69 9 -110 20 -41 11 -91
20 -111 20 -34 0 -87 15 -143 41 -45 21 -119 28 -139 13 -11 -8 -31 -14 -44
-14 -13 0 -21 -4 -18 -9 3 -5 -49 -8 -117 -8 -151 1 -190 -5 -289 -40 -55 -20
-81 -25 -86 -17 -4 6 -21 15 -38 18 -26 6 -32 4 -37 -13 -4 -17 -11 -19 -47
-16 -29 3 -47 -1 -58 -11 -8 -8 -24 -14 -36 -12 -11 1 -27 -1 -34 -6 -7 -4
-19 -5 -27 -2 -7 2 -27 0 -44 -7 -23 -8 -35 -8 -54 2 -22 12 -34 10 -98 -14
-41 -15 -90 -28 -110 -30 -46 -3 -59 -11 -59 -36 0 -10 -7 -19 -15 -19 -8 0
-15 7 -15 15 0 17 -2 18 -24 9 -9 -3 -16 -12 -16 -20 0 -8 -9 -14 -20 -14 -11
0 -20 -7 -20 -15 0 -22 -26 -29 -58 -16 -24 10 -35 8 -83 -19 -31 -16 -60 -40
-66 -53 -7 -14 -9 -55 -6 -99 3 -49 1 -78 -6 -82 -16 -10 -14 -26 3 -26 11 0
13 -9 9 -36 -5 -30 -3 -36 16 -41 15 -4 18 -9 12 -17 -11 -13 -3 -31 18 -38
11 -3 15 -26 17 -91 2 -50 -1 -87 -7 -87 -12 0 -12 -65 0 -107 5 -18 6 -35 1
-38 -5 -3 -10 4 -12 15 -6 39 -22 25 -23 -20 -1 -25 -4 -54 -8 -66 -6 -16 -1
-24 20 -34 16 -8 29 -15 31 -16 2 -1 -4 -16 -13 -34 -18 -34 -17 -75 2 -75 6
0 15 -3 19 -7 4 -5 0 -8 -9 -8 -24 0 -21 -17 3 -23 17 -4 20 -10 14 -32 -5
-21 -3 -27 15 -32 23 -6 28 -32 9 -51 -21 -21 -19 -49 3 -55 11 -3 23 -15 26
-26 3 -11 11 -22 18 -25 8 -3 11 -13 8 -25 -4 -15 -1 -21 10 -21 9 0 19 5 22
10 11 18 25 10 25 -15 0 -14 4 -25 9 -25 5 0 16 -3 25 -6 13 -5 16 1 16 25 0
25 4 31 21 31 18 0 21 5 17 36 -3 29 -2 33 7 20 17 -23 21 -20 19 12 -2 37 -2
38 -15 25 -21 -21 -57 8 -64 52 -6 37 -24 88 -45 126 -5 10 -4 26 5 42 8 16 9
29 3 35 -6 6 -4 19 7 35 l17 26 -39 -5 c-31 -4 -34 -3 -15 5 30 14 28 29 -5
43 -39 17 -39 17 -15 34 12 8 22 20 22 26 0 15 31 37 53 38 25 0 21 19 -8 30
-24 9 -35 30 -15 30 5 0 7 7 4 15 -4 9 0 15 9 15 9 0 22 2 29 5 10 4 14 -4 14
-29 0 -42 17 -63 66 -83 25 -10 38 -22 38 -34 0 -10 6 -19 14 -19 22 0 29 -36
15 -74 -10 -26 -10 -44 -2 -70 7 -21 7 -38 2 -42 -15 -9 -10 -22 11 -29 15 -5
19 -12 15 -26 -9 -27 16 -24 49 6 14 13 26 20 26 15 0 -5 21 -8 48 -8 26 1 75
-3 110 -7 61 -8 62 -8 62 -39 1 -26 2 -28 11 -13 11 18 39 24 39 7 0 -5 10
-10 23 -10 12 0 49 -1 82 -2 58 -3 60 -4 70 -35 5 -18 13 -33 18 -33 11 0 67
59 67 71 0 5 13 9 30 9 23 0 33 -7 45 -30 17 -33 26 -36 54 -18 15 9 32 9 78
-1 32 -7 64 -18 71 -23 8 -7 17 -6 27 2 18 15 128 7 133 -10 5 -15 22 -12 22
5 0 21 6 19 49 -16 31 -24 44 -29 67 -23 16 4 35 12 43 18 10 8 16 6 26 -8 11
-15 16 -15 34 -4 17 11 25 10 42 0 19 -12 24 -11 43 10 11 12 20 26 19 30 -2
5 2 8 7 8 6 0 10 -7 10 -15 0 -17 55 -21 65 -5 3 6 17 10 31 10 18 0 24 6 25
23 2 45 4 50 19 55 12 4 13 2 3 -9 -15 -15 0 -39 24 -39 11 0 11 4 3 20 -9 17
-6 22 27 36 21 9 52 18 68 20 60 8 70 11 70 25 0 8 10 18 22 24 15 6 21 16 18
26 -3 9 -1 28 4 42 8 19 20 28 52 34 36 7 42 12 45 35 1 15 -2 30 -7 33 -15
10 -10 42 7 49 9 4 14 13 10 21 -3 9 0 15 9 15 8 0 15 -6 15 -12 0 -9 2 -10 8
-2 4 7 16 13 27 15 28 6 33 39 6 39 -28 0 -27 28 2 32 17 2 22 10 22 33 1 17
5 29 10 28 6 -2 10 -7 10 -13 0 -5 10 -17 23 -26 22 -15 25 -14 57 10 44 34
61 33 74 -4 5 -16 17 -30 26 -30 9 0 22 -14 29 -31 9 -21 15 -27 19 -18 5 11
9 10 21 -5 13 -16 19 -17 28 -8 19 19 28 14 28 -17 0 -17 -6 -31 -16 -35 -11
-4 -14 -12 -8 -24 4 -9 8 -30 8 -46 1 -30 26 -51 26 -22 0 9 5 16 10 16 6 0
10 -7 10 -16 0 -12 7 -15 30 -12 23 3 30 1 30 -11 0 -24 -48 -71 -72 -71 -20
0 -19 -1 4 -20 22 -17 25 -25 21 -63 -3 -28 -1 -47 6 -52 9 -5 9 -10 0 -21
-15 -18 -3 -64 17 -64 11 0 8 -7 -10 -27 -18 -19 -28 -24 -38 -16 -7 6 -25 13
-40 17 -21 5 -28 3 -28 -9 0 -11 10 -15 35 -15 33 0 46 -12 27 -24 -5 -3 -8
-15 -7 -28 1 -13 -4 -29 -11 -36 -16 -16 -7 -43 12 -35 8 3 14 -1 14 -10 0 -8
7 -17 15 -21 8 -3 15 -13 15 -22 0 -13 -3 -14 -13 -5 -10 8 -18 5 -34 -12 -17
-20 -19 -32 -13 -73 4 -27 9 -54 11 -59 10 -24 -48 -12 -68 14 -11 14 -14 14
-23 1 -5 -8 -10 -17 -10 -20 0 -7 51 -30 66 -30 12 0 28 -59 19 -68 -3 -3 -5
0 -5 6 0 7 -9 12 -20 12 -23 0 -26 -13 -7 -29 17 -13 7 -97 -11 -94 -7 2 -12
-4 -12 -12 0 -8 -3 -14 -7 -14 -23 4 -33 -3 -33 -21 0 -23 18 -27 26 -5 4 8
10 15 15 15 16 0 10 -32 -8 -47 -13 -10 -15 -16 -5 -19 28 -12 10 -26 -25 -20
-34 6 -36 5 -20 -8 18 -14 17 -15 -10 -30 -15 -8 -22 -15 -14 -16 11 0 9 -4
-5 -14 -18 -14 -18 -15 9 -25 18 -7 25 -15 21 -23 -5 -8 -2 -9 9 -5 9 3 19 2
22 -3 4 -6 -7 -10 -24 -10 -20 0 -31 -5 -31 -14 0 -9 8 -12 25 -8 20 3 25 0
25 -17 0 -17 -6 -21 -34 -21 -19 0 -38 -5 -42 -12 -5 -8 -2 -9 9 -5 9 3 19 2
22 -3 4 -6 -1 -10 -9 -10 -9 0 -23 -11 -32 -25 -9 -14 -25 -25 -36 -25 -28 0
-19 -34 10 -38 12 -2 22 1 22 7 0 6 11 11 25 11 16 0 23 -4 19 -13 -3 -8 2
-20 11 -27 21 -18 19 -33 -5 -25 -25 8 -43 -30 -28 -59 9 -17 7 -18 -25 -12
-30 6 -38 3 -47 -14 -21 -38 16 -55 52 -23 20 18 23 8 12 -34 -7 -25 -30 -31
-37 -10 -2 6 -9 -5 -16 -25 -7 -21 -19 -38 -27 -38 -8 0 -14 -4 -14 -10 0 -5
5 -10 11 -10 6 0 9 -7 6 -15 -4 -8 -2 -17 3 -20 17 -11 11 -37 -10 -42 -11 -3
-20 -12 -20 -20 0 -13 3 -13 15 -3 8 7 16 10 16 6 1 -3 2 -10 3 -15 0 -5 4
-12 7 -15 12 -12 -3 -56 -20 -56 -14 -1 -13 -3 3 -15 18 -13 18 -16 4 -32 -18
-20 -37 -100 -21 -90 13 8 29 -5 37 -31 5 -16 4 -22 -5 -20 -7 2 -15 -5 -17
-15 -3 -17 0 -18 28 -12 30 7 32 6 25 -16 -10 -32 -9 -31 -38 -20 -15 6 -29 7
-31 2 -7 -11 10 -68 29 -97 18 -28 19 -35 3 -33 -27 3 -48 -1 -48 -10 0 -6 14
-11 31 -13 l32 -3 -26 -26 c-19 -19 -24 -32 -20 -49 l6 -24 8 22 c11 30 33 29
25 0 -3 -13 -6 -28 -6 -34 0 -6 -13 -9 -30 -6 -23 3 -30 0 -30 -12 0 -9 -4
-16 -10 -16 -5 0 -10 -12 -10 -26 0 -15 -8 -33 -17 -41 -16 -13 -16 -13 7 -7
14 4 34 8 45 8 26 1 47 27 34 43 -13 15 3 24 21 12 8 -5 11 -9 6 -9 -5 0 -3
-6 3 -14 10 -11 8 -16 -6 -24 -10 -6 -15 -14 -11 -18 4 -4 14 -1 22 5 16 14
40 6 30 -10 -3 -5 -9 -7 -13 -5 -9 6 -24 -5 -37 -29 -8 -13 -21 -19 -35 -18
-22 3 -23 2 -6 -11 9 -7 17 -22 17 -32 -1 -22 -33 -64 -49 -64 -16 0 -13 -36
4 -50 8 -7 15 -19 15 -26 0 -17 12 -18 29 -1 11 9 14 9 18 0 3 -7 11 -13 19
-13 8 0 14 -7 14 -15 0 -17 -35 -21 -45 -5 -12 20 -31 9 -47 -25 -8 -19 -12
-35 -8 -35 12 0 33 -68 27 -85 -3 -7 1 -16 9 -19 9 -3 12 -10 9 -16 -3 -6 4
-10 17 -10 17 0 19 -3 9 -9 -7 -5 -22 -6 -32 -4 -10 3 -19 0 -19 -6 0 -6 7
-11 15 -11 8 0 15 -6 15 -14 0 -8 7 -16 15 -20 8 -3 15 -10 15 -16 0 -16 -30
-12 -36 5 -4 8 -14 15 -24 15 -10 0 -20 6 -23 13 -2 6 -8 9 -12 4 -5 -4 0 -13
9 -20 15 -11 17 -17 7 -35 -6 -12 -9 -33 -5 -48 4 -17 2 -29 -6 -34 -7 -4 -9
-13 -6 -19 4 -6 11 -9 15 -7 4 3 8 -8 8 -25 0 -21 -4 -28 -14 -25 -17 7 -35
-28 -36 -70 -1 -30 -4 -34 -28 -34 -36 0 -51 -21 -54 -75 -1 -31 -8 -50 -21
-60 -24 -18 -44 -19 -44 -2 -1 6 -7 -4 -13 -23 -7 -19 -25 -48 -40 -64 -15
-16 -27 -36 -27 -44 0 -8 -7 -20 -15 -26 -13 -9 -22 -44 -24 -93 -1 -17 -42
-16 -65 2 -27 20 -36 19 -36 -5 0 -11 -7 -20 -16 -20 -8 0 -12 -5 -9 -10 4 -6
12 -9 18 -8 13 3 17 -4 17 -24 0 -9 -4 -8 -11 2 -8 12 -9 10 -4 -7 6 -22 -12
-43 -24 -26 -11 17 -41 11 -41 -9 0 -10 -7 -18 -16 -18 -12 0 -15 -9 -12 -37
2 -32 0 -38 -17 -39 -11 -1 -26 -2 -32 -3 -7 -1 -13 -10 -13 -20 0 -13 -8 -21
-22 -23 -16 -2 -22 -9 -20 -22 5 -25 -17 -66 -34 -66 -16 0 -29 -43 -20 -65 7
-19 -8 -19 -24 0 -11 13 -14 13 -26 -2 -10 -15 -10 -19 2 -26 8 -4 14 -15 14
-22 0 -17 -36 -20 -45 -5 -8 13 -55 -29 -55 -49 0 -7 -6 -11 -15 -7 -11 4 -15
-1 -15 -19 0 -14 6 -25 13 -25 7 -1 5 -6 -5 -14 -10 -7 -18 -16 -18 -20 0 -3
-10 -17 -22 -31 -19 -22 -22 -23 -33 -8 -15 21 -35 9 -35 -21 0 -13 -7 -30
-16 -37 -9 -7 -20 -23 -25 -36 -5 -13 -17 -23 -28 -23 -11 0 -34 -13 -51 -30
-17 -16 -36 -30 -43 -31 -7 -1 -2 -4 10 -7 20 -6 20 -9 7 -27 -14 -19 -16 -19
-28 -3 -11 15 -16 14 -51 -18 -26 -23 -33 -34 -22 -34 15 0 18 -4 17 -27 0 -5
-19 -8 -43 -8 -31 0 -42 -4 -42 -16 0 -25 -31 -49 -64 -49 -16 0 -33 -5 -36
-10 -3 -6 3 -10 14 -10 13 0 21 -7 21 -16 0 -10 -6 -14 -15 -10 -11 4 -15 -1
-15 -19 0 -19 -5 -25 -21 -25 -16 0 -20 5 -16 20 8 29 -27 26 -47 -5 -16 -24
-15 -25 8 -31 14 -3 30 -3 35 1 17 10 13 -11 -5 -26 -14 -11 -18 -11 -29 4 -7
10 -19 15 -29 11 -20 -8 -21 -28 -1 -44 24 -20 18 -30 -17 -30 -31 -1 -32 -1
-14 -15 19 -14 18 -15 -11 -15 -17 0 -33 5 -35 12 -6 16 -38 2 -38 -17 0 -8 5
-15 10 -15 6 0 10 -7 10 -15 0 -9 -9 -15 -24 -15 -17 0 -26 -7 -30 -26 -6 -21
-12 -25 -32 -21 -13 2 -27 0 -30 -4 -3 -5 -14 -9 -25 -9 -11 0 -23 -8 -26 -18
-4 -9 -13 -21 -20 -25 -7 -5 -11 -13 -7 -18 10 -17 -17 -39 -62 -50 -48 -12
-57 -20 -71 -64 -9 -28 -13 -30 -77 -37 -42 -4 -75 -13 -86 -23 -13 -12 -28
-15 -45 -11 -18 5 -25 2 -25 -9 0 -10 -10 -15 -30 -15 -30 0 -61 -23 -73 -53
-3 -9 -14 -17 -23 -17 -12 0 -15 6 -10 24 8 34 -11 43 -25 12 -9 -20 -9 -29 1
-41 10 -12 10 -15 -3 -15 -8 0 -17 7 -21 15 -7 19 -26 19 -26 0 0 -15 -9 -18
-47 -15 -12 0 -35 -6 -52 -14 -19 -10 -32 -12 -36 -6 -11 18 -79 11 -98 -10
-20 -24 -50 -26 -67 -5 -17 20 -47 19 -60 -2 -9 -17 -11 -16 -29 5 -14 16 -29
22 -50 20 -17 -1 -31 -6 -31 -10 0 -4 -29 -6 -64 -4 -54 3 -65 1 -69 -14 -3
-13 -12 -16 -36 -12 -17 2 -31 10 -31 18 0 10 -12 14 -38 14 -21 0 -43 5 -49
11 -12 12 -37 3 -28 -11 3 -4 -11 -8 -30 -8 -20 0 -41 -5 -49 -11 -7 -6 -16
-8 -19 -5 -4 4 -23 9 -43 11 -21 2 -44 12 -51 21 -10 12 -16 13 -19 5 -7 -17
-63 -5 -88 19 -29 27 -38 22 -31 -14 6 -27 5 -31 -6 -21 -7 7 -25 13 -39 13
-15 0 -35 9 -45 20 -19 21 -51 27 -57 9 -5 -16 -35 0 -41 23 -3 11 -10 17 -16
13 -6 -3 -11 -1 -11 4 0 7 -23 11 -55 11 -31 0 -55 4 -55 10 0 6 -11 16 -25
22 -22 10 -23 13 -10 20 21 12 9 28 -21 28 -16 0 -25 6 -26 18 0 9 -2 22 -3
27 -2 6 -3 14 -4 19 0 6 -6 5 -13 -2 -18 -18 -27 -15 -38 13 -7 18 -14 23 -27
18 -16 -5 -16 -4 1 9 23 18 17 52 -11 56 -11 2 -33 21 -48 43 -30 42 -43 52
-25 19 11 -20 6 -40 -8 -40 -11 0 -31 50 -26 64 3 8 -2 16 -10 19 -9 4 -16 13
-16 22 0 8 -7 15 -16 15 -8 0 -12 5 -9 10 4 7 -2 9 -18 5 -19 -5 -25 -2 -30
14 -3 14 1 22 14 26 20 7 26 30 9 40 -6 3 -13 -1 -16 -9 -10 -27 -29 -18 -47
24 -9 22 -17 44 -17 48 0 20 -39 31 -75 21 -30 -8 -41 -7 -63 7 -14 9 -42 17
-61 18 -25 1 -35 6 -33 15 5 21 -27 49 -49 44 -11 -3 -19 -2 -18 3 3 14 -20
67 -38 86 -9 10 -27 18 -40 18 -12 0 -23 4 -23 9 0 5 -10 11 -22 14 -18 5 -19
8 -9 21 11 13 9 17 -13 27 -14 7 -26 18 -26 26 0 7 -11 13 -25 13 -18 0 -25 5
-25 20 0 11 -6 23 -14 26 -8 3 -16 15 -19 26 -4 12 -10 17 -18 13 -9 -6 -10 0
-6 20 4 22 -1 33 -19 48 -13 10 -24 27 -24 38 0 11 -4 18 -9 14 -15 -9 -26 65
-12 87 8 14 9 24 0 39 -6 12 -9 30 -6 40 5 19 -16 28 -27 11 -2 -4 -23 -6 -45
-4 -32 3 -41 8 -41 23 0 11 7 19 16 19 9 0 14 6 11 13 -2 6 -10 11 -16 9 -6
-1 -11 8 -11 21 0 13 -4 27 -9 33 -9 8 -31 82 -33 112 -1 6 -10 12 -20 12 -15
0 -18 5 -13 20 9 28 -4 63 -21 56 -10 -4 -14 2 -14 18 0 15 7 26 20 29 27 7
35 33 16 52 -9 9 -16 20 -16 25 0 4 -8 7 -17 6 -10 0 -19 8 -21 19 -2 11 -11
28 -19 37 -9 10 -13 24 -10 31 3 8 0 20 -6 26 -8 8 -5 17 12 35 28 29 21 45
-15 38 -24 -4 -26 -2 -21 17 3 12 -1 27 -8 34 -7 8 -11 25 -8 40 3 15 0 33 -6
41 -9 10 -8 15 3 19 12 5 13 13 6 36 -5 18 -5 33 1 36 5 4 9 13 9 22 0 12 -3
13 -14 4 -9 -7 -13 -24 -11 -42 2 -16 0 -29 -5 -29 -11 0 -11 3 -12 118 -1 75
-5 84 -46 88 -31 4 -29 0 -37 62 -6 49 -6 52 15 52 18 0 21 4 16 23 -3 12 -6
36 -6 53 0 24 -6 33 -22 39 -13 4 -30 9 -38 12 -8 3 -25 6 -38 7 -12 1 -28 8
-35 15 -9 9 -6 11 13 9 21 -3 25 1 24 25 0 15 4 27 8 27 15 0 8 19 -9 23 -11
3 -7 5 10 6 32 1 33 5 7 39 -23 28 -20 68 7 109 13 19 13 26 2 39 -11 13 -10
17 5 26 13 7 16 17 11 41 -4 18 -11 36 -16 41 -4 5 -5 21 -2 36 6 34 -11 47
-33 25 -12 -12 -20 -13 -28 -5 -7 7 -7 13 -1 18 6 4 11 15 13 25 2 12 -4 17
-20 17 -17 0 -19 3 -10 12 7 7 12 28 12 48 0 35 -1 36 -34 32 -23 -3 -35 1
-39 12 -3 8 -2 18 4 22 6 4 6 11 -2 20 -6 8 -9 14 -7 14 3 0 -1 21 -7 48 -10
39 -16 46 -33 44 -11 -2 -23 2 -27 8 -4 6 4 10 19 10 14 0 26 3 26 6 0 10 -42
44 -53 44 -6 0 0 11 13 25 13 14 21 27 18 30 -3 3 -11 -1 -18 -10 -7 -8 -16
-15 -21 -15 -12 0 -11 47 1 55 15 10 12 35 -5 35 -8 0 -15 -9 -15 -19 0 -11
-4 -22 -9 -26 -6 -3 -9 11 -8 35 1 28 -4 44 -17 53 -22 16 -13 62 10 53 22 -8
29 16 9 31 -17 12 -18 13 -1 13 9 0 14 5 11 10 -3 6 -16 10 -27 10 -12 0 -18
-3 -15 -7 6 -6 -21 -32 -34 -33 -3 0 -2 20 4 45 12 54 -1 78 -29 54 -15 -12
-16 -11 -9 21 10 47 12 49 36 43 17 -5 20 -2 17 18 -2 18 -10 25 -31 27 -26 3
-28 7 -26 37 3 34 -14 65 -37 65 -17 0 -11 93 6 98 7 3 5 11 -5 22 -15 17 -15
21 -2 40 14 20 12 70 -3 70 -9 0 -22 -59 -24 -105 0 -16 -5 -30 -11 -30 -5 0
-9 9 -7 19 1 11 -3 23 -10 28 -10 6 -10 8 1 8 12 0 12 3 -1 18 -8 9 -15 27
-16 40 -1 18 3 22 19 17 10 -4 19 -2 19 4 0 5 -10 11 -22 13 -12 2 -23 9 -26
16 -3 9 6 11 37 6 27 -4 41 -3 41 4 0 16 -22 27 -47 23 -29 -3 -30 10 -2 27
17 11 20 20 15 43 -4 24 0 35 19 53 19 18 22 26 13 33 -30 24 -78 6 -78 -28 0
-11 -5 -19 -11 -19 -6 0 -9 17 -7 43 2 27 7 41 16 40 6 -2 12 2 12 8 0 8 6 7
16 -2 15 -12 16 -11 9 11 -10 33 -12 35 -29 21 -9 -7 -17 -8 -20 -2 -3 5 8 14
25 20 31 11 32 12 26 56 -5 35 -3 46 10 53 11 7 12 11 3 17 -6 4 -17 2 -23 -4
-6 -6 -13 -11 -16 -11 -5 0 -6 77 -1 90 8 23 8 50 0 50 -6 0 -10 9 -10 20 0
14 -5 18 -16 13 -13 -5 -13 -7 -2 -14 10 -7 9 -9 -3 -9 -22 0 -51 70 -37 88 6
6 16 12 24 12 7 0 14 10 16 22 3 26 38 38 38 14 0 -9 5 -16 10 -16 6 0 10 5
10 11 0 6 9 8 20 4 11 -3 20 -4 20 -2 0 10 -32 67 -41 72 -16 11 -10 35 9 35
24 0 45 43 29 59 -8 8 -8 14 1 23 9 9 12 9 12 -1 0 -9 11 -12 35 -9 31 4 35 2
35 -20 0 -24 -1 -24 -25 -8 -13 9 -28 16 -32 16 -12 0 -14 -58 -3 -65 6 -4 10
-15 10 -26 0 -25 21 -24 54 2 l26 20 0 -25 c0 -20 5 -26 23 -26 19 1 20 2 6
13 -9 7 -14 18 -11 25 2 7 -2 19 -8 28 -16 18 -5 31 12 16 7 -5 24 -12 38 -14
15 -2 26 -11 28 -23 8 -40 22 -46 50 -20 15 14 32 25 39 25 6 0 20 3 30 7 10
3 15 3 11 -2 -11 -12 11 -35 32 -35 10 0 20 5 22 11 3 8 15 9 37 4 25 -5 30
-10 20 -16 -20 -13 7 -29 49 -29 20 0 31 -4 27 -10 -3 -5 1 -10 9 -10 9 0 25
-9 36 -20 11 -11 26 -17 33 -14 8 3 17 -1 20 -10 3 -8 31 -20 62 -27 35 -8 60
-19 66 -31 5 -10 14 -18 20 -18 6 0 8 4 4 9 -3 5 -1 12 5 16 5 3 10 -2 10 -12
1 -17 1 -17 14 0 17 21 61 24 53 2 -10 -25 15 -29 33 -5 15 20 23 22 64 17 29
-4 54 -2 65 5 13 8 26 8 50 0 25 -9 31 -8 31 4 0 17 4 17 49 4 47 -13 57 -2
64 71 3 38 12 68 22 78 15 15 16 14 13 -14 -1 -16 1 -51 5 -77 7 -41 12 -48
31 -48 12 0 31 7 42 15 10 8 29 15 41 15 12 0 23 5 25 12 3 8 21 11 47 10 24
-2 48 2 55 7 7 6 17 6 26 1 13 -8 13 -13 2 -30 -14 -23 -8 -40 14 -40 8 0 14
-7 14 -15 0 -8 7 -15 16 -15 10 0 14 6 10 15 -3 8 -1 15 5 15 6 0 9 6 6 14 -6
15 0 15 51 0 22 -6 23 -5 11 14 -8 12 -18 21 -24 20 -16 -3 -55 12 -55 22 0
15 28 18 69 8 33 -8 39 -13 30 -24 -19 -23 -1 -34 46 -27 35 4 45 2 46 -8 0
-8 5 -3 10 10 7 17 6 27 -2 32 -8 4 -4 9 10 14 18 5 22 13 19 38 -2 18 -8 32
-15 31 -7 -1 -31 -2 -54 -2 -30 -2 -40 -6 -36 -16 5 -14 -10 -36 -25 -36 -19
0 -7 58 15 73 12 8 20 17 17 20 -6 6 -143 -17 -158 -27 -8 -4 -10 -2 -6 7 3 8
-2 17 -10 20 -25 10 -19 36 10 47 17 7 32 6 46 -1 14 -8 23 -8 31 0 17 17 -22
41 -60 36 -46 -6 -43 16 11 79 78 92 94 145 76 244 -11 65 -7 93 13 73 6 -6
19 -11 28 -11 42 0 141 -73 182 -134 15 -22 36 -54 46 -70 25 -37 17 -60 -18
-53 -15 3 -34 -1 -45 -9 -11 -8 -30 -14 -42 -14 -29 0 -114 -36 -114 -49 0
-16 82 -23 133 -11 34 7 60 7 87 0 42 -11 99 -10 106 2 3 5 9 6 14 3 5 -3 18
-1 29 5 27 14 32 2 20 -50 -9 -41 -48 -91 -79 -102 -8 -2 -12 -21 -10 -56 2
-52 2 -125 0 -172 -1 -14 -7 -31 -13 -39 -9 -11 -9 -13 -1 -8 14 8 24 -14 24
-49 0 -15 -6 -24 -15 -24 -9 0 -15 7 -13 16 2 10 -3 19 -9 21 -19 7 -16 -24 5
-44 10 -11 16 -31 15 -50 -1 -18 3 -33 8 -33 5 0 9 -4 9 -10 0 -5 -7 -10 -16
-10 -14 0 -15 -2 -3 -17 11 -13 11 -17 2 -20 -7 -3 -13 -9 -13 -15 0 -6 -12
-27 -27 -46 -18 -24 -26 -46 -25 -71 2 -28 -4 -41 -25 -58 -22 -18 -24 -23
-10 -23 11 0 17 -8 17 -25 0 -14 -5 -25 -10 -25 -6 0 -9 -15 -8 -32 3 -29 0
-33 -19 -31 -20 2 -23 -2 -23 -37 0 -30 -4 -40 -16 -40 -11 0 -13 -6 -9 -19 3
-11 3 -31 -1 -45 -5 -21 -11 -25 -29 -20 -24 6 -39 -14 -29 -41 4 -8 1 -15 -5
-15 -16 0 -50 -41 -45 -54 3 -7 0 -25 -5 -39 -8 -20 -17 -27 -38 -27 -20 0
-24 -3 -14 -9 8 -6 10 -14 5 -22 -5 -8 -7 -22 -6 -31 2 -10 -2 -18 -7 -18 -7
0 -10 -19 -7 -49 3 -42 1 -48 -13 -44 -9 3 -3 -6 13 -19 22 -18 26 -27 17 -33
-8 -4 -17 -2 -21 5 -4 7 -13 11 -20 8 -23 -7 42 -70 72 -70 24 0 25 -2 17 -32
-5 -17 -7 -49 -3 -70 6 -35 8 -38 19 -23 7 9 15 17 19 17 11 0 6 -48 -6 -52
-7 -3 -5 -12 8 -26 21 -26 42 -28 50 -7 7 18 34 20 35 3 0 -10 2 -10 6 0 2 6
14 12 25 12 14 0 18 -5 14 -15 -3 -10 1 -18 12 -22 9 -3 29 -18 43 -33 20 -21
39 -29 85 -34 79 -10 94 -15 94 -32 0 -8 4 -13 10 -9 11 7 81 -21 91 -36 4 -8
15 -5 33 6 20 14 30 15 39 6 6 -6 28 -11 48 -11 21 0 41 -4 44 -10 3 -5 16
-10 27 -10 12 0 29 -7 38 -15 14 -12 22 -12 65 3 28 9 52 20 55 23 3 3 20 12
38 20 17 8 32 18 32 24 0 12 -47 35 -73 35 -24 0 -87 48 -87 66 0 8 -4 14 -10
14 -5 0 -10 7 -10 15 0 8 -8 15 -19 15 -10 0 -24 7 -31 15 -7 8 -18 15 -25 15
-6 0 -20 9 -30 20 -22 24 -35 26 -35 5 0 -17 -16 -20 -25 -5 -9 14 -52 12 -58
-2 -4 -10 -7 -10 -18 0 -11 10 -10 12 3 12 17 0 31 37 17 46 -17 10 -47 -6
-53 -28 -3 -13 0 -26 7 -30 8 -5 4 -8 -10 -8 -24 0 -29 20 -24 97 2 26 -1 32
-13 27 -21 -8 -22 29 -1 46 16 13 11 49 -7 61 -5 3 -2 12 7 19 20 17 20 70 0
70 -9 0 -15 -9 -15 -25 0 -28 -7 -30 -32 -11 -22 17 -24 66 -3 66 9 0 18 12
22 30 5 29 32 43 34 18 0 -10 2 -10 5 -1 3 7 -4 25 -17 42 -25 34 -20 50 15
44 13 -3 26 -1 29 4 5 8 12 74 17 155 0 14 54 57 63 51 6 -3 7 -1 3 5 -4 7 -4
27 -1 45 5 27 14 37 41 47 34 14 47 40 19 40 -8 0 -15 4 -15 8 0 7 49 40 67
45 5 1 6 6 4 12 -4 12 -4 16 2 70 3 22 10 54 16 70 29 86 41 140 31 143 -14 5
-13 62 1 62 7 0 18 8 25 18 16 20 18 72 4 72 -5 0 -10 5 -10 11 0 5 4 8 9 5
12 -8 34 20 27 33 -4 5 -2 12 4 16 6 4 8 11 5 16 -4 5 -3 15 2 21 4 7 6 26 4
42 -1 16 3 32 11 37 10 7 9 9 -4 9 -10 0 -18 5 -18 10 0 6 5 10 10 10 6 0 8
11 4 25 -3 14 -2 25 4 25 13 0 22 64 13 97 -10 34 -4 53 15 53 16 0 19 27 3
32 -7 2 -6 13 2 33 7 17 13 53 14 80 0 28 4 56 9 63 6 9 3 12 -10 10 -14 -2
-20 6 -25 37 -4 22 -3 48 2 57 6 10 5 19 -1 23 -6 3 -13 -1 -17 -10 -5 -16 -7
-16 -15 -1 -6 11 -3 22 11 37 22 24 33 57 20 64 -4 3 -6 12 -2 20 3 9 -1 15
-11 15 -9 0 -16 -8 -17 -17 0 -11 -3 -13 -6 -5 -2 6 -9 10 -14 6 -5 -3 -9 4
-9 15 0 14 6 21 19 21 29 0 36 32 12 52 -13 10 -21 28 -21 46 0 40 -9 62 -26
62 -17 0 -17 1 1 36 8 16 15 35 15 42 0 14 -26 16 -35 2 -14 -22 -26 -8 -23
27 3 33 1 37 -29 45 -18 5 -33 13 -33 18 0 6 -6 10 -13 10 -6 0 -18 12 -24 28
-14 29 -62 59 -64 39 -1 -7 -4 2 -8 18 -4 22 -13 31 -31 33 -34 5 -50 20 -50
47 0 28 -21 38 -36 17 -9 -12 -12 -12 -25 1 -8 8 -26 18 -39 22 -14 4 -31 16
-38 26 -18 26 -32 24 -32 -3 l0 -23 -20 25 c-11 14 -20 19 -20 12 0 -8 -12 -2
-29 15 -16 16 -55 36 -90 47 -34 11 -64 23 -67 27 -3 5 -15 4 -29 -1 -24 -9
-144 -6 -187 5 -13 3 -35 2 -50 -4 -18 -7 -37 -5 -67 5 -23 8 -56 12 -73 9
-25 -5 -29 -3 -24 10 5 13 1 15 -14 10 -34 -11 -80 4 -80 26 0 22 -18 25 -34
5 -9 -12 -21 -12 -68 -3 -32 5 -58 14 -58 19 0 4 -7 8 -15 8 -8 0 -24 9 -35
20 -14 14 -38 21 -87 24 -44 3 -71 10 -77 20 -8 12 -14 11 -40 -9 -34 -26
-166 -49 -152 -26 4 6 3 11 -3 11 -5 0 -11 -5 -13 -10 -2 -6 -19 -12 -39 -14
-20 -2 -42 -7 -49 -11 -21 -13 -74 -14 -82 -1 -11 16 -10 56 2 56 10 0 13 -12
11 -40 0 -8 4 -5 10 7 9 17 16 20 34 13 19 -7 24 -5 28 11 3 10 1 22 -4 25 -5
3 -9 -2 -9 -10 0 -9 -4 -16 -9 -16 -11 0 -23 43 -13 50 4 3 7 29 8 58 1 63
-17 66 -28 3 -4 -23 -16 -53 -26 -66 -17 -22 -21 -23 -32 -10 -7 8 -18 15 -26
15 -20 0 -25 16 -14 44 6 16 17 26 30 26 11 0 20 7 20 16 0 11 6 13 19 9 22
-7 42 20 33 45 -6 19 -38 50 -52 50 -19 0 -10 17 21 41 17 13 35 34 40 46 6
16 13 21 25 16 14 -5 16 -1 12 20 -3 15 -1 27 3 27 5 0 9 11 9 24 0 14 5 28
10 31 18 11 11 45 -11 53 -20 8 -19 10 14 35 43 33 77 36 77 7 0 -11 4 -20 9
-20 8 0 9 42 1 60 -1 3 -1 19 0 36 1 17 -6 36 -14 43 -9 8 -16 17 -16 22 0 14
22 10 34 -6 10 -14 14 -11 29 15 15 25 16 29 2 24 -11 -5 -15 0 -13 17 3 20
-1 23 -19 21 -30 -4 -29 13 1 42 12 13 26 31 29 40 4 10 18 16 41 16 60 0 65
5 59 64 -6 55 7 80 30 57 7 -7 14 -7 24 0 16 14 17 -3 1 -19 -9 -9 -7 -12 9
-12 29 0 27 39 -4 63 -28 23 -30 46 -3 44 22 -1 27 -13 8 -20 -8 -3 -6 -6 5
-6 9 -1 17 3 17 8 0 5 3 16 6 25 5 12 -1 16 -23 16 -22 0 -29 5 -30 20 -2 21
11 27 22 10 12 -19 31 -10 43 23 9 22 15 28 20 19 7 -10 12 -8 26 7 14 16 15
21 3 33 -8 7 -19 23 -25 35 -11 19 -8 22 20 32 46 16 58 14 55 -10 -1 -12 4
-24 11 -26 15 -6 16 21 2 47 -6 11 -17 17 -25 14 -9 -4 -18 1 -22 12 -4 11
-14 24 -22 31 -23 17 -5 28 23 15 20 -9 25 -8 30 4 3 9 4 20 0 25 -3 5 2 9 12
9 13 0 16 7 11 34 -3 18 -1 38 5 44 6 6 12 25 13 43 2 24 -2 33 -16 36 -10 3
-19 12 -19 20 0 9 6 13 14 10 10 -4 12 0 9 14 -4 14 0 19 15 19 12 0 23 9 27
23 6 19 8 20 12 4 6 -22 27 -17 31 6 2 10 -3 17 -12 17 -9 0 -16 5 -16 10 0 6
12 10 26 10 24 0 26 3 21 29 -5 24 -2 31 13 36 10 3 30 19 43 34 13 16 41 37
63 46 21 10 47 25 57 33 41 35 76 48 93 33z m2564 -211 c0 -5 -5 -10 -11 -10
-5 0 -7 5 -4 10 3 6 8 10 11 10 2 0 4 -4 4 -10z m-2973 -245 c6 -14 10 -25 8
-25 -8 0 -35 32 -35 41 0 18 15 9 27 -16z m5558 -195 c-3 -6 -10 -10 -16 -10
-10 0 -12 33 -2 44 9 9 26 -22 18 -34z m-5792 -256 c9 -10 -4 -34 -19 -34 -8
0 -14 6 -14 13 0 22 19 35 33 21z m4742 -293 c3 -5 1 -12 -5 -16 -5 -3 -10 1
-10 9 0 18 6 21 15 7z m-4980 -260 c-4 -17 -10 -31 -14 -31 -18 0 -19 14 -5
42 19 36 28 31 19 -11z m-175 -246 c-12 -15 -30 -12 -30 6 0 5 10 9 21 9 18 0
19 -2 9 -15z m5500 -229 c0 -8 -4 -17 -9 -20 -10 -7 -23 19 -14 28 11 11 23 6
23 -8z m-5370 -31 c-14 -16 -40 -20 -40 -6 0 10 17 19 39 20 11 1 11 -2 1 -14z
m5314 9 c9 -3 16 -12 16 -20 0 -10 -6 -11 -30 -3 -16 6 -30 15 -30 20 0 10 21
12 44 3z m-5331 -41 c8 -7 -11 -33 -24 -33 -5 0 -9 9 -9 20 0 19 20 27 33 13z
m-93 -23 c0 -5 -6 -10 -14 -10 -8 0 -18 5 -21 10 -3 6 3 10 14 10 12 0 21 -4
21 -10z m5277 -22 c-3 -8 -6 -5 -6 6 -1 11 2 17 5 13 3 -3 4 -12 1 -19z m-42
-17 c3 -5 1 -12 -5 -16 -5 -3 -10 1 -10 9 0 18 6 21 15 7z m205 -72 c12 -9 12
-10 -4 -5 -13 5 -17 2 -12 -9 3 -8 0 -15 -7 -15 -7 0 -13 9 -14 20 -2 22 14
26 37 9z m61 -62 c-8 -8 -11 -5 -11 9 0 27 14 41 18 19 2 -9 -1 -22 -7 -28z
m-983 -58 c17 -11 28 -11 55 -1 18 7 39 12 47 12 16 0 51 -40 45 -50 -9 -14
20 -29 64 -34 24 -3 54 -12 67 -21 20 -13 32 -14 62 -5 50 13 52 13 52 -9 0
-11 5 -23 10 -26 6 -4 3 -16 -10 -32 -11 -14 -22 -39 -25 -57 -8 -41 -28 -67
-53 -69 -12 -1 -18 -6 -15 -15 3 -7 11 -11 18 -8 19 7 33 -12 27 -40 -5 -30
-58 -62 -75 -45 -6 6 -21 11 -33 11 -14 0 -25 8 -29 21 -5 15 -12 19 -26 15
-10 -3 -27 -9 -38 -12 -10 -3 -25 1 -34 10 -8 9 -27 16 -41 16 -14 0 -26 5
-26 10 0 6 -17 10 -37 10 -21 0 -57 7 -81 15 -31 11 -104 16 -265 20 -122 3
-258 7 -301 9 -54 2 -87 -1 -105 -10 -33 -17 -51 -18 -51 -1 0 19 -71 19 -93
-1 -16 -14 -19 -14 -32 4 -12 17 -12 20 3 31 9 7 24 19 34 28 13 14 20 14 36
4 24 -15 52 -5 59 22 4 14 12 19 24 16 11 -3 19 -1 19 4 0 4 12 8 28 8 32 0
131 22 150 34 6 5 17 5 23 2 6 -4 20 2 32 13 12 11 39 26 60 33 20 7 37 17 37
21 0 14 74 39 110 37 51 -3 119 11 152 31 34 20 123 20 156 -1z m249 -45 c-3
-3 -12 -4 -19 -1 -8 3 -5 6 6 6 11 1 17 -2 13 -5z m-1787 -104 c0 -11 -4 -20
-10 -20 -5 0 -10 9 -10 20 0 11 5 20 10 20 6 0 10 -9 10 -20z m-2150 -20 c11
0 29 -5 39 -11 13 -9 26 -9 49 -1 26 9 33 8 40 -5 9 -16 94 -44 148 -48 41 -4
74 -22 68 -38 -3 -8 -27 -13 -67 -14 -34 -1 -81 -5 -104 -11 -27 -6 -45 -6
-52 1 -7 7 -20 6 -40 -3 -24 -9 -38 -9 -67 0 -35 12 -99 9 -151 -6 -19 -5 -23
-2 -23 15 0 25 -6 26 -42 7 -23 -12 -26 -12 -21 0 3 8 -1 14 -10 14 -9 0 -22
7 -31 15 -14 14 -13 18 4 35 11 11 28 20 39 20 10 0 24 7 31 15 7 8 28 17 49
20 20 4 45 10 56 15 13 5 28 3 42 -6 12 -8 32 -14 43 -14z m-348 -112 c-7 -7
-12 -8 -12 -2 0 14 12 26 19 19 2 -3 -1 -11 -7 -17z m2691 -35 c4 -3 2 -12 -5
-20 -8 -10 -7 -17 7 -27 18 -13 14 -36 -7 -36 -29 0 -51 73 -25 83 18 8 23 8
30 0z m3407 -33 c0 -5 -4 -10 -10 -10 -5 0 -10 5 -10 10 0 6 5 10 10 10 6 0
10 -4 10 -10z m165 0 c3 -5 1 -10 -4 -10 -6 0 -11 5 -11 10 0 6 2 10 4 10 3 0
8 -4 11 -10z m-3682 -24 c6 -16 -2 -28 -14 -20 -12 7 -11 34 0 34 5 0 11 -6
14 -14z m27 -36 c-28 -28 -30 -25 -12 15 12 27 18 32 24 20 6 -9 2 -21 -12
-35z m907 44 c-3 -3 -12 -4 -19 -1 -8 3 -5 6 6 6 11 1 17 -2 13 -5z m913 2 c0
-3 -4 -8 -10 -11 -5 -3 -10 -1 -10 4 0 6 5 11 10 11 6 0 10 -2 10 -4z m-1040
-16 c0 -5 -12 -10 -26 -10 -14 0 -23 4 -19 10 3 6 15 10 26 10 10 0 19 -4 19
-10z m-2852 -22 c2 -13 -5 -16 -29 -15 -38 2 -50 24 -17 30 33 6 43 3 46 -15z
m-174 -3 c4 -11 -2 -15 -24 -15 -35 0 -49 17 -18 23 13 2 26 5 29 6 4 0 9 -6
13 -14z m411 -5 c6 -4 30 -11 54 -15 25 -4 61 -16 80 -28 20 -11 54 -30 76
-42 99 -54 281 -275 268 -325 -5 -18 -3 -22 9 -17 22 8 30 -3 13 -19 -18 -19
-45 -18 -45 1 0 8 -3 15 -7 15 -5 0 -21 32 -38 71 -16 39 -36 74 -44 77 -8 3
-47 38 -85 78 -66 66 -154 124 -190 124 -9 0 -32 9 -51 20 -20 11 -48 19 -63
18 -20 -2 -27 2 -33 22 -7 24 -7 24 -8 3 -1 -24 -15 -31 -26 -13 -3 6 -3 20 0
31 6 18 12 20 43 14 21 -4 42 -10 47 -15z m3118 13 c10 -10 -13 -33 -33 -33
-21 0 -34 27 -17 34 18 7 43 7 50 -1z m-3633 -29 c0 -8 -5 -12 -10 -9 -6 4 -8
11 -5 16 9 14 15 11 15 -7z m2490 6 c0 -13 -11 -13 -30 0 -12 8 -11 10 8 10
12 0 22 -4 22 -10z m478 -6 c-9 -9 -21 -13 -27 -9 -16 10 -3 25 22 25 20 0 20
-1 5 -16z m-667 -35 c-9 -22 -10 -22 -10 -3 -1 11 2 24 6 27 12 12 14 0 4 -24z
m159 -25 c0 -8 -3 -14 -7 -14 -12 0 -42 58 -35 65 9 8 42 -33 42 -51z m455 46
c-3 -5 -10 -10 -16 -10 -5 0 -9 5 -9 10 0 6 7 10 16 10 8 0 12 -4 9 -10z
m2796 -43 c-8 -8 -11 -7 -11 4 0 20 13 34 18 19 3 -7 -1 -17 -7 -23z m-3411
-23 c0 -8 -5 -12 -10 -9 -6 4 -8 11 -5 16 9 14 15 11 15 -7z m-940 -14 c0 -5
-4 -10 -10 -10 -5 0 -10 5 -10 10 0 6 5 10 10 10 6 0 10 -4 10 -10z m1662 -31
c-20 -191 -13 -212 107 -323 30 -28 26 -43 -15 -49 -47 -8 -94 2 -88 17 3 8
-15 17 -51 25 -31 7 -59 19 -62 27 -3 8 -13 14 -23 14 -11 0 -22 5 -25 10 -3
6 -30 10 -60 10 -44 0 -57 4 -69 22 -33 47 -10 88 93 171 73 59 115 86 151 97
35 11 45 6 42 -21z m1833 11 c-3 -5 -10 -10 -16 -10 -5 0 -9 5 -9 10 0 6 7 10
16 10 8 0 12 -4 9 -10z m-2501 -49 c3 -5 -3 -11 -14 -14 -20 -5 -26 3 -13 16
9 10 21 9 27 -2z m-2381 -43 c-4 -24 -7 -71 -6 -106 2 -80 31 -133 98 -184 45
-35 68 -44 145 -62 17 -3 26 -13 27 -27 2 -22 -6 -22 -108 -4 -14 3 -66 6
-117 9 -50 2 -98 8 -104 13 -7 5 -32 16 -56 23 -24 7 -47 21 -52 29 -6 10 -10
11 -10 4 0 -7 -5 -13 -11 -13 -6 0 -8 7 -5 16 3 8 -4 34 -16 57 -25 48 -24 76
4 95 10 8 17 21 14 28 -3 8 1 17 8 20 8 3 12 14 9 25 -4 13 0 19 12 19 9 0 30
14 47 30 27 27 99 69 121 70 5 0 5 -19 0 -42z m3766 -17 c33 -24 72 -69 90
-103 12 -24 11 -29 -7 -56 -12 -16 -28 -34 -36 -41 -8 -7 -12 -19 -9 -27 3 -9
-1 -14 -12 -14 -9 0 -29 -9 -43 -20 -14 -12 -36 -20 -48 -18 -11 1 -29 -3 -37
-11 -10 -8 -51 -15 -104 -17 -49 -2 -98 -6 -111 -9 -30 -7 -63 11 -56 30 4 8
13 15 22 15 33 0 125 55 156 94 49 61 57 81 63 161 l6 74 50 -20 c28 -11 62
-28 76 -38z m-524 39 c3 -5 3 -25 -1 -45 -5 -28 -11 -35 -30 -35 -28 0 -42 37
-24 69 11 22 44 28 55 11z m203 -2 c7 -7 12 -26 12 -43 0 -34 -15 -55 -41 -55
-19 0 -29 20 -29 59 0 28 16 51 35 51 6 0 16 -5 23 -12z m-3214 -46 c10 -17
-10 -77 -28 -80 -28 -6 -38 12 -31 52 6 29 12 36 31 36 12 0 25 -3 28 -8z
m207 -19 c14 -37 4 -69 -23 -76 -28 -8 -38 7 -38 55 0 52 43 67 61 21z m1884
-8 c0 -5 -10 -11 -22 -13 -16 -2 -23 2 -23 13 0 11 7 15 23 13 12 -2 22 -7 22
-13z m3353 -7 c-2 -6 -10 -14 -16 -16 -7 -2 -10 2 -6 12 7 18 28 22 22 4z
m-1186 -43 c-12 -22 -27 -2 -18 22 5 12 10 13 17 6 7 -7 8 -17 1 -28z m-5687
16 c3 -5 1 -12 -5 -16 -5 -3 -10 1 -10 9 0 18 6 21 15 7z m3540 -1 c4 -6 1
-18 -6 -26 -10 -12 -14 -12 -20 -2 -5 7 -9 19 -9 26 0 15 26 16 35 2z m-3511
-55 c3 -8 1 -15 -4 -15 -6 0 -10 7 -10 15 0 8 2 15 4 15 2 0 6 -7 10 -15z
m6843 -17 c21 -44 23 -60 8 -89 -9 -16 -13 -34 -9 -40 4 -7 -3 -9 -17 -7 -22
3 -24 8 -23 53 1 59 11 105 23 105 4 0 12 -10 18 -22z m-7607 -50 c17 -11 22
-10 29 0 7 11 10 10 15 -3 4 -11 12 -14 26 -10 29 9 27 -32 -3 -59 -22 -20
-72 -32 -61 -14 3 4 -2 11 -10 14 -9 3 -16 14 -16 24 0 11 -4 21 -10 25 -5 3
-7 12 -3 20 6 18 8 18 33 3z m830 -38 c0 -5 -4 -10 -10 -10 -5 0 -10 5 -10 10
0 6 5 10 10 10 6 0 10 -4 10 -10z m870 -30 c0 -5 -5 -10 -11 -10 -5 0 -7 5 -4
10 3 6 8 10 11 10 2 0 4 -4 4 -10z m-885 -21 c8 -12 -13 -69 -25 -69 -12 0
-21 45 -10 48 6 2 10 10 10 18 0 16 16 19 25 3z m166 -42 c-8 -8 -11 -7 -11 4
0 20 13 34 18 19 3 -7 -1 -17 -7 -23z m-211 -17 c0 -11 -2 -20 -3 -20 -2 0
-12 9 -22 20 -18 19 -17 20 3 20 15 0 22 -6 22 -20z m6810 -38 c0 -9 -4 -23
-9 -31 -8 -12 -12 -12 -25 -2 -9 8 -16 19 -15 25 0 7 2 6 6 -2 7 -17 23 -5 23
19 0 11 5 17 10 14 6 -3 10 -14 10 -23z m-6770 -33 c0 -5 -7 -9 -15 -9 -15 0
-20 12 -9 23 8 8 24 -1 24 -14z m1536 -8 c15 -35 13 -40 -17 -34 -21 4 -30 1
-35 -12 -6 -14 -10 -13 -30 12 -13 15 -23 31 -24 36 0 12 28 8 33 -5 4 -9 6
-7 6 3 1 11 11 16 31 16 17 0 32 -7 36 -16z m-1546 -21 c0 -5 -4 -10 -10 -10
-5 0 -10 5 -10 10 0 6 5 10 10 10 6 0 10 -4 10 -10z m3650 1 c0 -5 -7 -11 -15
-15 -9 -3 -15 0 -15 9 0 8 7 15 15 15 8 0 15 -4 15 -9z m3125 -1 c3 -5 1 -10
-4 -10 -6 0 -11 5 -11 10 0 6 2 10 4 10 3 0 8 -4 11 -10z m-5300 -60 c3 -5 -1
-10 -10 -10 -9 0 -13 5 -10 10 3 6 8 10 10 10 2 0 7 -4 10 -10z m4695 -30 c0
-5 -5 -10 -12 -10 -9 0 -9 -3 -1 -11 12 -12 6 -49 -8 -49 -5 0 -9 7 -9 15 0 8
-5 15 -10 15 -6 0 -3 11 6 25 17 25 34 33 34 15z m617 -62 c-3 -7 -5 -2 -5 12
0 14 2 19 5 13 2 -7 2 -19 0 -25z m-6825 -185 c7 -9 7 -13 -1 -13 -6 0 -11 -8
-12 -17 0 -12 -5 -8 -14 12 -10 22 -10 35 -1 54 l11 25 3 -24 c2 -14 9 -31 14
-37z m-74 29 c2 -7 -2 -10 -12 -6 -9 3 -16 11 -16 16 0 13 23 5 28 -10z m6962
-76 c0 -3 -4 -8 -10 -11 -5 -3 -10 -1 -10 4 0 6 5 11 10 11 6 0 10 -2 10 -4z
m-36 -51 c3 -8 1 -15 -4 -15 -6 0 -10 7 -10 15 0 8 2 15 4 15 2 0 6 -7 10 -15z
m51 -15 c-3 -5 -11 -10 -16 -10 -6 0 -7 5 -4 10 3 6 11 10 16 10 6 0 7 -4 4
-10z m-15 -30 c0 -5 -4 -10 -10 -10 -5 0 -10 5 -10 10 0 6 5 10 10 10 6 0 10
-4 10 -10z m-4446 -135 c-4 -8 -8 -15 -10 -15 -2 0 -4 7 -4 15 0 8 4 15 10 15
5 0 7 -7 4 -15z m3623 -91 c-3 -3 -12 -4 -19 -1 -8 3 -5 6 6 6 11 1 17 -2 13
-5z m911 -185 c-2 -6 -8 -10 -13 -10 -5 0 -11 4 -13 10 -2 6 4 11 13 11 9 0
15 -5 13 -11z m-68 -133 c0 -2 -8 -10 -17 -17 -16 -13 -17 -12 -4 4 13 16 21
21 21 13z m-6800 -46 c0 -5 -4 -10 -10 -10 -5 0 -10 5 -10 10 0 6 5 10 10 10
6 0 10 -4 10 -10z m6773 -28 c-18 -5 -27 3 -18 17 4 7 10 7 20 -2 11 -10 11
-13 -2 -15z m-6823 8 c0 -5 -4 -10 -10 -10 -5 0 -10 5 -10 10 0 6 5 10 10 10
6 0 10 -4 10 -10z m2084 -162 c8 -31 7 -38 -3 -38 -5 0 -11 14 -13 30 -5 35 7
41 16 8z m-364 -22 c0 -3 -4 -8 -10 -11 -5 -3 -10 -1 -10 4 0 6 5 11 10 11 6
0 10 -2 10 -4z m-1650 -16 c0 -5 -5 -10 -11 -10 -5 0 -7 5 -4 10 3 6 8 10 11
10 2 0 4 -4 4 -10z m5817 -44 c-4 -9 -10 -16 -16 -16 -11 0 -22 40 -14 53 9
14 36 -20 30 -37z m-4101 -13 c-11 -11 -19 6 -11 24 8 17 8 17 12 0 3 -10 2
-21 -1 -24z m4144 17 c0 -5 -4 -10 -10 -10 -5 0 -10 5 -10 10 0 6 5 10 10 10
6 0 10 -4 10 -10z m760 -21 c0 -5 -7 -9 -15 -9 -15 0 -20 12 -9 23 8 8 24 -1
24 -14z m-52 -28 c2 -7 -3 -11 -14 -9 -10 2 -19 -2 -19 -9 0 -17 -12 -26 -25
-18 -8 5 -4 15 11 31 24 25 40 27 47 5z m-4908 -1 c0 -5 -4 -10 -10 -10 -5 0
-10 5 -10 10 0 6 5 10 10 10 6 0 10 -4 10 -10z m160 -30 c0 -5 -4 -10 -10 -10
-5 0 -10 5 -10 10 0 6 5 10 10 10 6 0 10 -4 10 -10z m3992 -22 c-15 -15 -24
-6 -16 16 5 12 10 14 17 7 8 -8 8 -14 -1 -23z m-3932 2 c0 -5 -4 -10 -10 -10
-5 0 -10 5 -10 10 0 6 5 10 10 10 6 0 10 -4 10 -10z m-160 -10 c0 -5 -7 -10
-16 -10 -8 0 -12 5 -9 10 3 6 10 10 16 10 5 0 9 -4 9 -10z m0 -30 c0 -5 -5
-10 -11 -10 -5 0 -7 5 -4 10 3 6 8 10 11 10 2 0 4 -4 4 -10z m-1880 -10 c0 -5
-5 -10 -11 -10 -5 0 -7 5 -4 10 3 6 8 10 11 10 2 0 4 -4 4 -10z m2120 -30 c-6
-11 -19 -20 -30 -20 -31 0 -32 17 -3 28 41 15 45 14 33 -8z m120 0 c0 -5 -4
-10 -10 -10 -5 0 -10 5 -10 10 0 6 5 10 10 10 6 0 10 -4 10 -10z m-1730 -504
c0 -3 -4 -8 -10 -11 -5 -3 -10 -1 -10 4 0 6 5 11 10 11 6 0 10 -2 10 -4z
m5476 -203 c-11 -11 -19 6 -11 24 8 17 8 17 12 0 3 -10 2 -21 -1 -24z m-5511
-54 c11 -17 -1 -21 -15 -4 -8 9 -8 15 -2 15 6 0 14 -5 17 -11z m5485 -119 c0
-5 -12 -10 -27 -9 -25 0 -26 1 -8 9 27 12 35 12 35 0z m-5400 -99 c0 -11 -4
-22 -9 -25 -11 -7 -23 22 -15 35 9 16 24 10 24 -10z m44 -6 c-4 -8 -8 -15 -10
-15 -2 0 -4 7 -4 15 0 8 4 15 10 15 5 0 7 -7 4 -15z m-124 -95 c0 -11 -4 -20
-10 -20 -5 0 -10 9 -10 20 0 11 5 20 10 20 6 0 10 -9 10 -20z m5490 0 c0 -13
-11 -13 -30 0 -12 8 -11 10 8 10 12 0 22 -4 22 -10z m-5540 -19 c0 -6 -4 -13
-10 -16 -5 -3 -10 1 -10 9 0 9 5 16 10 16 6 0 10 -4 10 -9z m5520 -79 c0 -10
5 -23 11 -29 17 -17 2 -32 -31 -31 -33 1 -37 12 -18 53 13 29 38 34 38 7z
m-5290 -83 c0 -5 -7 -9 -15 -9 -15 0 -20 12 -9 23 8 8 24 -1 24 -14z m-10 -39
c0 -5 -5 -10 -11 -10 -5 0 -7 5 -4 10 3 6 8 10 11 10 2 0 4 -4 4 -10z m-46
-125 c3 -8 1 -15 -4 -15 -6 0 -10 7 -10 15 0 8 2 15 4 15 2 0 6 -7 10 -15z
m109 -151 c9 -10 -4 -34 -19 -34 -8 0 -14 9 -14 20 0 19 19 27 33 14z m67
-210 c0 -17 -22 -14 -28 4 -2 7 3 12 12 12 9 0 16 -7 16 -16z m-10 -54 c0 -5
-7 -10 -15 -10 -8 0 -15 5 -15 10 0 6 7 10 15 10 8 0 15 -4 15 -10z m4750 -8
c0 -13 -12 -22 -22 -16 -10 6 -1 24 13 24 5 0 9 -4 9 -8z m-4653 -228 c-9 -9
-28 6 -21 18 4 6 10 6 17 -1 6 -6 8 -13 4 -17z m133 -141 c0 -5 -5 -15 -10
-23 -7 -11 -12 -12 -21 -3 -6 6 -8 16 -5 22 8 12 36 15 36 4z m3537 -689 c-3
-3 -12 -4 -19 -1 -8 3 -5 6 6 6 11 1 17 -2 13 -5z m-2857 -44 c0 -5 -4 -10
-10 -10 -5 0 -10 5 -10 10 0 6 5 10 10 10 6 0 10 -4 10 -10z m3035 -670 c3 -5
1 -10 -4 -10 -6 0 -11 5 -11 10 0 6 2 10 4 10 3 0 8 -4 11 -10z m-61 -61 c15
-18 15 -23 5 -30 -21 -13 -36 -11 -43 7 -3 8 -10 12 -16 9 -17 -11 -11 7 8 21
23 18 25 17 46 -7z m124 -8 c11 7 25 10 29 5 4 -4 0 -12 -9 -17 -9 -5 -14 -17
-12 -26 3 -10 -4 -31 -15 -47 l-19 -28 -7 32 c-4 20 -15 34 -26 37 -22 6 -23
12 -9 48 l10 27 18 -22 c16 -20 21 -21 40 -9z m-235 -13 c-5 -24 -39 -45 -52
-32 -3 3 5 7 17 11 12 3 22 13 22 22 0 16 10 34 16 29 1 -2 0 -15 -3 -30z m47
-43 c0 -8 -5 -15 -12 -15 -9 0 -9 -3 0 -12 16 -16 15 -28 -2 -28 -7 0 -19 -7
-26 -15 -7 -8 -16 -15 -21 -15 -15 0 -10 19 11 40 11 11 20 29 20 40 0 11 7
20 15 20 8 0 15 -7 15 -15z m318 -3 c2 -7 -3 -12 -12 -12 -9 0 -16 7 -16 16 0
17 22 14 28 -4z m-218 -34 c0 -6 7 -19 15 -28 19 -21 9 -50 -17 -50 -17 0 -19
5 -14 25 8 33 -11 41 -49 21 -29 -15 -51 -12 -26 3 8 5 10 14 6 22 -6 8 -4 11
7 7 8 -4 21 -2 29 3 20 13 49 11 49 -3z m-265 -58 c3 -5 1 -10 -4 -10 -6 0
-11 5 -11 10 0 6 2 10 4 10 3 0 8 -4 11 -10z m372 -6 c-3 -3 -12 -4 -19 -1 -8
3 -5 6 6 6 11 1 17 -2 13 -5z m-2849 -23 c3 -8 -1 -12 -9 -9 -7 2 -15 10 -17
17 -3 8 1 12 9 9 7 -2 15 -10 17 -17z m2542 9 c0 -5 -4 -10 -10 -10 -5 0 -10
5 -10 10 0 6 5 10 10 10 6 0 10 -4 10 -10z m160 2 c0 -14 -11 -21 -26 -15 -21
8 -17 23 6 23 11 0 20 -4 20 -8z m-3080 -62 c0 -5 -4 -10 -10 -10 -5 0 -10 5
-10 10 0 6 5 10 10 10 6 0 10 -4 10 -10z m3260 0 c0 -5 -4 -10 -10 -10 -5 0
-10 5 -10 10 0 6 5 10 10 10 6 0 10 -4 10 -10z m-3045 -10 c3 -5 1 -10 -4 -10
-6 0 -11 5 -11 10 0 6 2 10 4 10 3 0 8 -4 11 -10z m2305 -10 c0 -5 -5 -10 -11
-10 -5 0 -7 5 -4 10 3 6 8 10 11 10 2 0 4 -4 4 -10z m-2667 -50 c-4 -14 0 -20
10 -20 9 0 19 -4 22 -10 12 -20 -16 -10 -40 14 -13 14 -32 26 -42 29 -10 3 -2
5 19 6 31 1 35 -2 31 -19z m975 -41 c-3 -8 -7 -3 -11 10 -4 17 -3 21 5 13 5
-5 8 -16 6 -23z m1827 1 c3 -5 -1 -10 -9 -10 -9 0 -16 5 -16 10 0 6 4 10 9 10
6 0 13 -4 16 -10z m-2887 -52 c-7 -19 -35 -21 -41 -3 -5 11 0 15 19 15 16 0
24 -5 22 -12z m2959 -20 c-3 -8 -6 -5 -6 6 -1 11 2 17 5 13 3 -3 4 -12 1 -19z
m-97 -10 c0 -7 6 -25 14 -40 12 -23 12 -29 1 -38 -19 -16 -42 25 -25 44 8 10
7 15 -5 20 -19 7 -20 26 0 26 8 0 15 -6 15 -12z m-1752 -35 c-9 -10 -13 -24
-11 -30 3 -7 0 -13 -6 -13 -12 0 -15 42 -4 53 3 4 13 7 21 7 13 0 13 -2 0 -17z
m-1124 -9 c11 -28 6 -39 -9 -20 -8 11 -15 23 -15 28 0 14 18 9 24 -8z m1504
-23 c-1 -25 -4 -28 -26 -22 -14 4 -26 15 -28 26 -2 16 3 20 26 22 25 2 29 -1
28 -26z m1342 19 c0 -5 -7 -10 -15 -10 -8 0 -15 5 -15 10 0 6 7 10 15 10 8 0
15 -4 15 -10z m-1110 -15 c0 -2 -10 -9 -22 -15 -22 -11 -22 -10 -4 4 21 17 26
19 26 11z m440 -15 c0 -5 -7 -10 -15 -10 -8 0 -15 -5 -15 -12 0 -6 -3 -8 -6
-5 -8 8 14 37 27 37 5 0 9 -4 9 -10z m763 -11 c-6 -6 -9 -18 -6 -25 3 -10 0
-12 -10 -8 -8 3 -18 1 -21 -4 -8 -13 -56 9 -56 25 0 8 12 11 35 8 22 -3 39 0
47 9 7 8 15 12 17 10 3 -2 0 -9 -6 -15z m-863 1 c0 -5 -4 -10 -10 -10 -5 0
-10 5 -10 10 0 6 5 10 10 10 6 0 10 -4 10 -10z m640 -45 c0 -14 -4 -25 -9 -25
-4 0 -6 11 -3 25 2 14 6 25 8 25 2 0 4 -11 4 -25z m-671 6 c9 -6 10 -11 2 -15
-13 -8 -31 1 -31 15 0 11 11 11 29 0z m-59 -30 c0 -10 -7 -22 -16 -25 -12 -5
-15 -2 -10 10 3 8 6 20 6 25 0 5 5 9 10 9 6 0 10 -9 10 -19z m815 9 c3 -5 -1
-10 -10 -10 -9 0 -13 5 -10 10 3 6 8 10 10 10 2 0 7 -4 10 -10z m-891 -15 c-4
-8 -10 -15 -15 -15 -5 0 -9 7 -9 15 0 8 7 15 15 15 9 0 12 -6 9 -15z m196 5
c0 -5 -4 -10 -10 -10 -5 0 -10 5 -10 10 0 6 5 10 10 10 6 0 10 -4 10 -10z
m745 0 c3 -5 -3 -10 -14 -10 -12 0 -21 5 -21 10 0 6 6 10 14 10 8 0 18 -4 21
-10z m-190 -40 c-3 -5 -10 -10 -16 -10 -5 0 -9 5 -9 10 0 6 7 10 16 10 8 0 12
-4 9 -10z m-715 -30 c0 -12 -28 -25 -36 -17 -9 9 6 27 22 27 8 0 14 -5 14 -10z
m735 -10 c3 -5 1 -10 -4 -10 -6 0 -11 5 -11 10 0 6 2 10 4 10 3 0 8 -4 11 -10z
m-495 -10 c0 -5 -8 -10 -17 -10 -15 0 -16 2 -3 10 19 12 20 12 20 0z m7 -121
c-1 -21 -7 -29 -21 -29 -18 0 -18 1 -3 18 11 12 13 22 7 32 -15 23 -12 34 5
20 8 -6 13 -25 12 -41z m73 31 c0 -5 -4 -10 -10 -10 -5 0 -10 5 -10 10 0 6 5
10 10 10 6 0 10 -4 10 -10z m222 -32 c-7 -7 -12 -8 -12 -2 0 14 12 26 19 19 2
-3 -1 -11 -7 -17z m-222 -65 c0 -19 -5 -23 -32 -23 -28 1 -31 2 -17 13 9 7 19
23 24 36 5 18 9 21 16 10 5 -8 9 -24 9 -36z m120 37 c0 -5 -2 -10 -4 -10 -3 0
-8 5 -11 10 -3 6 -1 10 4 10 6 0 11 -4 11 -10z m40 -10 c0 -5 -5 -10 -11 -10
-5 0 -7 5 -4 10 3 6 8 10 11 10 2 0 4 -4 4 -10z m87 -16 c-3 -3 -12 -4 -19 -1
-8 3 -5 6 6 6 11 1 17 -2 13 -5z m-152 -11 c-11 -3 -27 -12 -36 -19 -14 -13
-17 -13 -22 0 -7 17 7 25 48 24 20 0 23 -2 10 -5z"/>
<path d="M4355 8460 c-3 -5 3 -10 15 -10 12 0 18 5 15 10 -3 6 -10 10 -15 10
-5 0 -12 -4 -15 -10z"/>
<path d="M4333 8429 c-6 -6 -9 -19 -6 -28 4 -17 6 -17 28 3 24 21 24 36 1 36
-6 0 -17 -5 -23 -11z"/>
<path d="M9266 8001 c-4 -7 -5 -15 -2 -18 9 -9 19 4 14 18 -4 11 -6 11 -12 0z"/>
<path d="M4104 7968 c3 -13 6 -31 6 -40 0 -10 5 -18 10 -18 6 0 10 5 10 11 0
7 7 17 16 24 15 10 15 13 -1 28 -25 25 -49 22 -41 -5z"/>
<path d="M4160 7880 c0 -5 5 -10 11 -10 5 0 7 5 4 10 -3 6 -8 10 -11 10 -2 0
-4 -4 -4 -10z"/>
<path d="M4055 7819 c-12 -19 5 -23 22 -6 16 16 16 17 1 17 -9 0 -20 -5 -23
-11z"/>
<path d="M4165 7800 c-4 -6 -3 -16 3 -22 6 -6 12 -6 17 2 4 6 3 16 -3 22 -6 6
-12 6 -17 -2z"/>
<path d="M9287 7733 c-18 -36 -17 -50 3 -38 16 10 32 57 23 66 -4 4 -16 -9
-26 -28z"/>
<path d="M4860 7620 c0 -5 5 -10 10 -10 6 0 10 5 10 10 0 6 -4 10 -10 10 -5 0
-10 -4 -10 -10z"/>
<path d="M6921 6804 c0 -11 3 -14 6 -6 3 7 2 16 -1 19 -3 4 -6 -2 -5 -13z"/>
<path d="M9441 6776 c-16 -19 -8 -46 14 -46 16 0 18 14 6 43 -6 17 -8 17 -20
3z"/>
<path d="M9365 6720 c-3 -5 -2 -10 4 -10 5 0 13 5 16 10 3 6 2 10 -4 10 -5 0
-13 -4 -16 -10z"/>
<path d="M9156 6512 c-3 -5 0 -9 7 -9 7 0 20 -4 31 -8 14 -6 18 -4 14 6 -5 16
-43 24 -52 11z"/>
<path d="M9386 6411 c-3 -5 5 -8 19 -8 14 0 22 3 19 8 -3 5 -11 9 -19 9 -8 0
-16 -4 -19 -9z"/>
<path d="M7325 6340 c3 -5 11 -10 16 -10 6 0 7 5 4 10 -3 6 -11 10 -16 10 -6
0 -7 -4 -4 -10z"/>
<path d="M7523 6331 c4 -16 1 -21 -13 -21 -10 0 -20 4 -22 8 -4 12 -78 23 -78
13 0 -5 -13 -14 -30 -21 -56 -23 -32 -59 27 -39 31 10 37 9 45 -5 12 -21 28
-20 28 2 0 14 8 18 30 18 22 0 30 -4 30 -17 0 -10 5 -21 10 -24 6 -3 10 3 10
14 0 12 7 21 15 21 8 0 15 -4 15 -10 0 -17 36 -11 61 9 18 15 21 22 13 31 -8
8 -14 8 -18 1 -7 -10 -54 5 -66 21 -3 3 -18 10 -34 14 -26 6 -29 5 -23 -15z"/>
<path d="M5355 6300 c-3 -5 -1 -10 4 -10 6 0 11 5 11 10 0 6 -2 10 -4 10 -3 0
-8 -4 -11 -10z"/>
<path d="M7170 6296 c0 -8 5 -18 10 -21 6 -3 10 3 10 14 0 12 -4 21 -10 21 -5
0 -10 -6 -10 -14z"/>
<path d="M5475 6281 c-2 -5 2 -12 11 -15 15 -6 15 -8 -2 -27 -10 -11 -23 -18
-30 -15 -8 3 -11 -1 -7 -10 3 -7 18 -14 33 -14 23 0 27 4 23 20 -4 13 0 20 10
20 14 0 44 27 36 34 -11 9 -69 14 -74 7z"/>
<path d="M7685 6259 c-9 -29 8 -43 50 -42 19 1 35 -3 35 -8 0 -5 5 -9 10 -9
14 0 2 62 -13 72 -7 4 -26 8 -44 8 -23 0 -33 -5 -38 -21z m45 1 c0 -5 -4 -10
-10 -10 -5 0 -10 5 -10 10 0 6 5 10 10 10 6 0 10 -4 10 -10z"/>
<path d="M7818 6214 c-9 -14 7 -50 16 -36 4 7 3 19 -2 28 -5 9 -12 13 -14 8z"/>
<path d="M7500 6180 c0 -5 5 -10 10 -10 6 0 10 5 10 10 0 6 -4 10 -10 10 -5 0
-10 -4 -10 -10z"/>
<path d="M7945 6160 c-3 -5 3 -10 14 -10 12 0 21 5 21 10 0 6 -6 10 -14 10 -8
0 -18 -4 -21 -10z"/>
<path d="M7205 6140 c-3 -5 -1 -10 4 -10 6 0 11 5 11 10 0 6 -2 10 -4 10 -3 0
-8 -4 -11 -10z"/>
<path d="M7026 6133 c-3 -4 -6 -12 -6 -20 0 -14 36 -18 44 -5 6 10 -30 33 -38
25z"/>
<path d="M3540 6116 c0 -2 7 -9 15 -16 13 -11 14 -10 9 4 -5 14 -24 23 -24 12z"/>
<path d="M5088 6063 c7 -3 16 -2 19 1 4 3 -2 6 -13 5 -11 0 -14 -3 -6 -6z"/>
<path d="M7105 6050 c3 -5 8 -10 11 -10 2 0 4 5 4 10 0 6 -5 10 -11 10 -5 0
-7 -4 -4 -10z"/>
<path d="M4600 6029 c0 -5 5 -7 10 -4 6 3 10 8 10 11 0 2 -4 4 -10 4 -5 0 -10
-5 -10 -11z"/>
<path d="M3620 6015 c0 -8 5 -15 10 -15 6 0 10 7 10 15 0 8 -4 15 -10 15 -5 0
-10 -7 -10 -15z"/>
<path d="M3570 5990 c0 -5 5 -10 10 -10 6 0 10 5 10 10 0 6 -4 10 -10 10 -5 0
-10 -4 -10 -10z"/>
<path d="M7104 5979 c-3 -6 -2 -15 4 -21 13 -13 32 -2 32 18 0 16 -26 19 -36
3z"/>
<path d="M6030 5880 c0 -5 5 -10 11 -10 5 0 7 5 4 10 -3 6 -8 10 -11 10 -2 0
-4 -4 -4 -10z"/>
<path d="M3584 5794 c3 -9 6 -17 6 -20 0 -2 7 -1 15 2 23 9 18 34 -6 34 -15 0
-19 -4 -15 -16z"/>
<path d="M3580 5740 c0 -13 28 -25 38 -16 3 4 0 11 -8 16 -20 13 -30 12 -30 0z"/>
<path d="M9545 5710 c3 -5 8 -10 11 -10 2 0 4 5 4 10 0 6 -5 10 -11 10 -5 0
-7 -4 -4 -10z"/>
<path d="M9460 5639 c0 -5 4 -8 9 -5 5 4 11 0 14 -6 2 -7 8 -9 13 -5 5 4 2 12
-6 17 -20 13 -30 12 -30 -1z"/>
<path d="M3590 5578 c0 -18 18 -34 28 -24 3 4 -2 14 -11 23 -16 16 -17 16 -17
1z"/>
<path d="M9400 5460 c0 -5 5 -10 10 -10 6 0 10 5 10 10 0 6 -4 10 -10 10 -5 0
-10 -4 -10 -10z"/>
<path d="M9470 5430 c-9 -6 -10 -10 -3 -10 6 0 15 5 18 10 8 12 4 12 -15 0z"/>
<path d="M9436 5374 c-9 -24 -7 -27 9 -10 17 17 19 26 6 26 -5 0 -12 -7 -15
-16z"/>
<path d="M7240 5230 c0 -5 6 -10 14 -10 8 0 18 5 21 10 3 6 -3 10 -14 10 -12
0 -21 -4 -21 -10z"/>
<path d="M7240 5169 c0 -22 0 -22 14 -3 8 10 18 16 22 11 4 -4 2 -13 -4 -19
-17 -17 -15 -28 4 -21 23 9 13 47 -13 51 -18 3 -23 -1 -23 -19z"/>
<path d="M9424 5179 c-3 -6 -1 -16 5 -22 8 -8 11 -5 11 11 0 24 -5 28 -16 11z"/>
<path d="M7330 5135 c-10 -12 -10 -15 4 -15 9 0 16 7 16 15 0 8 -2 15 -4 15
-2 0 -9 -7 -16 -15z"/>
<path d="M7331 5081 c-9 -6 -10 -11 -2 -15 13 -8 31 1 31 15 0 11 -11 11 -29
0z"/>
<path d="M3690 5020 c0 -5 5 -10 10 -10 6 0 10 5 10 10 0 6 -4 10 -10 10 -5 0
-10 -4 -10 -10z"/>
<path d="M9357 5024 c-3 -3 -3 -13 0 -21 5 -12 7 -12 14 -1 15 23 4 40 -14 22z"/>
<path d="M3740 4996 c0 -10 9 -16 21 -16 24 0 21 23 -4 28 -10 2 -17 -3 -17
-12z"/>
<path d="M5242 4771 c4 -13 18 -16 19 -4 0 4 -5 9 -11 12 -7 2 -11 -2 -8 -8z"/>
<path d="M5855 4710 c3 -5 11 -10 16 -10 6 0 7 5 4 10 -3 6 -11 10 -16 10 -6
0 -7 -4 -4 -10z"/>
<path d="M9320 4710 c0 -5 5 -10 10 -10 6 0 10 5 10 10 0 6 -4 10 -10 10 -5 0
-10 -4 -10 -10z"/>
<path d="M6897 4643 c-3 -3 -25 -7 -49 -9 -75 -8 -86 -10 -101 -22 -7 -7 -28
-15 -45 -18 -17 -4 -46 -19 -63 -35 -22 -20 -43 -29 -66 -29 -29 0 -34 -4 -39
-30 -4 -16 -10 -30 -15 -30 -5 0 -9 -7 -9 -15 0 -10 10 -15 29 -15 26 0 30 4
29 28 -1 53 0 54 40 33 20 -10 70 -22 110 -26 51 -5 75 -12 79 -22 5 -12 20
-14 76 -10 58 5 73 3 83 -11 11 -15 14 -14 38 2 20 13 38 15 70 11 39 -6 45
-4 71 24 16 16 32 28 36 25 4 -2 10 0 13 5 8 12 -51 54 -64 46 -5 -3 -14 5
-20 19 -5 14 -16 26 -24 26 -8 0 -21 6 -28 14 -17 16 -57 31 -79 28 -9 -2 -27
2 -41 7 -14 5 -28 7 -31 4z"/>
<path d="M7216 4531 c-4 -7 -5 -15 -2 -18 9 -9 19 4 14 18 -4 11 -6 11 -12 0z"/>
<path d="M3905 4510 c3 -5 8 -10 11 -10 2 0 4 5 4 10 0 6 -5 10 -11 10 -5 0
-7 -4 -4 -10z"/>
<path d="M3912 4481 c2 -7 7 -12 11 -12 12 1 9 15 -3 20 -7 2 -11 -2 -8 -8z"/>
<path d="M9310 4456 c0 -8 5 -18 10 -21 6 -3 10 1 10 9 0 8 -4 18 -10 21 -5 3
-10 -1 -10 -9z"/>
<path d="M9320 4280 c0 -5 5 -10 11 -10 5 0 7 5 4 10 -3 6 -8 10 -11 10 -2 0
-4 -4 -4 -10z"/>
<path d="M6432 4208 c6 -18 28 -21 28 -4 0 9 -7 16 -16 16 -9 0 -14 -5 -12
-12z"/>
<path d="M5810 4160 c0 -5 5 -10 10 -10 6 0 10 5 10 10 0 6 -4 10 -10 10 -5 0
-10 -4 -10 -10z"/>
<path d="M5952 4138 c6 -18 28 -21 28 -4 0 9 -7 16 -16 16 -9 0 -14 -5 -12
-12z"/>
<path d="M5545 4115 c-22 -13 -56 -24 -75 -24 -20 -1 -41 -6 -48 -13 -9 -9
-12 -9 -12 0 0 7 5 12 10 12 6 0 10 5 10 11 0 6 -9 8 -20 4 -14 -5 -20 -2 -20
9 0 9 -6 16 -14 16 -21 0 -30 -19 -13 -26 13 -5 13 -9 2 -31 -7 -14 -11 -32
-8 -39 3 -8 1 -14 -5 -14 -6 0 -12 6 -15 13 -3 8 -12 5 -29 -11 -22 -20 -26
-21 -31 -8 -8 20 -47 21 -47 2 0 -17 -18 -31 -27 -22 -3 3 0 12 6 20 15 18 -5
34 -22 17 -18 -18 -55 -13 -68 10 l-11 21 -19 -21 c-10 -11 -19 -25 -19 -31 0
-7 -8 -9 -19 -5 -14 4 -23 0 -30 -14 -6 -11 -24 -22 -41 -26 -16 -4 -30 -10
-30 -14 0 -4 -11 -14 -25 -21 -19 -10 -27 -10 -39 -1 -18 15 -40 5 -32 -15 4
-10 -10 -21 -44 -36 -28 -12 -50 -28 -50 -35 0 -7 -9 -13 -21 -13 -16 0 -19
-4 -14 -20 9 -29 -5 -90 -21 -90 -8 0 -14 -5 -14 -10 0 -17 27 -23 48 -11 16
9 21 7 25 -9 3 -11 1 -20 -4 -20 -5 0 -9 -12 -9 -27 0 -25 1 -25 18 -10 24 22
39 21 52 -3 6 -11 16 -17 25 -14 20 8 75 -33 75 -57 0 -10 6 -19 13 -19 7 0
24 -8 37 -17 14 -10 30 -18 37 -19 7 -1 24 -12 39 -23 15 -12 30 -21 34 -21 4
0 26 -17 48 -37 31 -29 40 -43 36 -59 -4 -14 0 -23 11 -28 10 -4 14 -2 9 6 -5
8 4 9 31 5 44 -7 72 -27 37 -27 -17 0 -22 -6 -22 -25 0 -26 15 -35 22 -13 3 7
9 8 18 3 10 -6 9 -11 -5 -21 -14 -11 -16 -16 -6 -28 7 -8 8 -17 3 -20 -18 -11
21 -74 51 -80 15 -3 30 -6 35 -7 36 -8 122 -78 122 -100 0 -5 7 -9 15 -9 18 0
19 12 3 28 -8 8 -8 15 2 27 12 15 15 14 27 -9 8 -14 19 -26 26 -26 8 0 7 -4
-3 -10 -13 -9 -11 -14 13 -35 15 -13 34 -22 41 -19 8 3 17 0 21 -5 3 -6 11 -9
16 -5 5 3 15 1 22 -5 7 -5 19 -6 26 -2 20 13 62 -11 55 -31 -9 -30 5 -39 37
-23 23 13 29 22 29 50 0 18 5 37 10 40 6 4 8 11 4 16 -4 6 -11 6 -20 -2 -7 -6
-12 -15 -9 -19 6 -9 -13 -25 -20 -18 -3 2 1 19 8 37 9 26 16 32 34 28 25 -5
32 20 13 39 -8 8 -6 15 5 24 8 7 15 23 15 36 0 14 6 24 14 24 19 0 29 -17 16
-25 -15 -9 -12 -25 5 -25 8 0 15 -5 15 -11 0 -8 4 -8 14 0 15 13 49 4 40 -10
-12 -20 25 -7 40 14 15 22 16 22 31 2 21 -27 60 -22 135 15 10 4 18 0 25 -14
11 -21 17 -22 68 -10 22 5 26 3 21 -9 -5 -13 4 -15 56 -11 71 4 80 8 80 35 0
19 1 19 28 2 15 -10 30 -22 33 -27 10 -13 81 -17 96 -4 10 8 17 6 27 -8 8 -10
17 -16 21 -13 9 9 10 68 1 76 -10 10 -146 12 -146 2 0 -5 -7 -9 -15 -9 -8 0
-15 7 -15 15 0 18 -30 20 -30 3 -1 -8 -6 -6 -14 5 -16 21 -36 22 -62 2 -24
-18 -34 -19 -34 -2 0 13 -28 24 -105 43 -16 5 -35 8 -42 9 -7 0 -18 6 -25 13
-6 6 -26 12 -44 12 -17 0 -43 9 -57 20 -14 11 -29 20 -34 20 -4 0 -19 12 -32
25 -15 16 -30 23 -41 20 -39 -12 -88 -7 -136 16 -47 22 -52 27 -51 57 1 25 5
32 21 33 32 1 77 6 122 13 31 6 44 3 54 -8 17 -21 40 -20 56 2 11 15 34 17
226 17 130 1 234 -4 267 -11 47 -10 55 -10 68 5 17 20 101 20 114 0 5 -9 11
-10 21 -2 14 12 60 10 143 -5 28 -6 57 -6 65 -2 31 16 164 11 198 -7 29 -16
34 -16 42 -3 8 13 10 13 10 -2 0 -22 31 -31 65 -18 35 13 55 -1 39 -28 -8 -12
-23 -16 -53 -15 -32 1 -45 -3 -54 -18 -6 -10 -16 -19 -20 -19 -5 0 -37 -13
-71 -29 -33 -15 -95 -34 -136 -41 -45 -8 -87 -22 -105 -35 -29 -21 -122 -55
-151 -55 -8 0 -14 -4 -14 -9 0 -5 -3 -16 -6 -25 -4 -11 2 -15 25 -14 17 1 31
5 31 10 0 13 27 9 40 -7 9 -11 17 -12 32 -4 15 8 19 7 17 -3 -4 -29 2 -38 26
-38 26 0 34 15 13 23 -10 3 -9 9 3 22 14 14 21 15 38 5 15 -7 26 -8 34 -2 18
14 74 24 80 15 3 -5 18 -8 34 -7 42 2 43 3 43 18 0 9 8 12 25 8 14 -2 36 3 51
13 19 12 29 13 38 5 10 -8 23 -6 47 6 64 32 68 34 74 24 3 -6 14 -10 23 -10 9
0 28 -9 41 -19 24 -19 25 -19 62 6 20 13 39 34 43 45 4 16 8 19 18 10 19 -16
48 7 48 38 0 5 13 7 32 3 20 -4 29 -3 25 4 -7 11 36 23 79 23 13 0 24 4 24 10
0 5 21 24 48 41 26 18 50 38 55 45 4 7 28 16 52 20 25 3 45 10 45 15 0 5 -4 9
-10 9 -5 0 -10 5 -10 11 0 6 7 9 15 5 9 -3 15 0 15 9 0 8 5 15 10 15 6 0 10
-4 10 -9 0 -5 9 -11 19 -14 21 -5 53 23 65 57 3 10 12 16 20 13 8 -3 16 -1 19
6 3 9 16 9 55 1 58 -12 62 -10 62 22 0 14 8 24 21 27 12 3 18 10 14 16 -3 6 1
21 9 33 9 12 16 18 16 13 0 -6 8 6 18 25 15 29 15 39 5 60 -7 14 -13 31 -13
38 0 7 -6 15 -14 18 -8 3 -20 19 -26 35 -18 42 -59 68 -94 62 -21 -4 -33 -1
-42 11 -10 14 -16 16 -34 6 -12 -6 -28 -9 -37 -6 -8 3 -22 2 -31 -3 -9 -5 -33
-10 -52 -12 -19 -2 -42 -9 -51 -16 -14 -11 -18 -11 -29 2 -8 9 -21 13 -36 9
-15 -4 -24 -2 -24 5 0 19 -28 12 -35 -9 -8 -24 -12 -24 -56 -6 -37 15 -89 59
-89 75 0 21 -39 -3 -51 -32 -8 -19 -15 -25 -17 -16 -8 24 -40 50 -46 36 -3 -9
-8 -8 -18 3 -7 9 -20 14 -29 12 -9 -1 -23 3 -30 11 -26 25 -65 28 -92 7 -14
-11 -30 -20 -36 -20 -17 0 -13 -47 5 -65 11 -10 25 -14 40 -11 14 4 26 1 31
-7 10 -17 72 -30 87 -18 6 4 20 11 31 13 11 3 28 9 38 13 28 12 19 -9 -12 -26
-24 -14 -28 -22 -25 -48 2 -17 -1 -31 -7 -31 -6 0 -7 -5 -3 -12 5 -8 10 -7 18
4 8 11 18 13 35 6 22 -8 23 -9 7 -27 -16 -18 -16 -20 10 -40 15 -12 34 -19 43
-17 50 14 81 17 81 7 0 -5 -8 -15 -17 -20 -11 -6 -13 -11 -5 -11 7 0 10 -4 7
-10 -3 -5 -2 -17 3 -27 7 -11 6 -23 -1 -34 -10 -16 -14 -16 -38 -4 -24 13 -28
13 -33 -1 -5 -14 -16 -15 -63 -9 -31 4 -63 11 -72 16 -9 4 -37 12 -63 17 -40
8 -50 7 -66 -9 -23 -21 -32 -15 -32 18 0 12 -5 23 -10 23 -6 0 -10 -6 -9 -12
3 -28 -2 -36 -28 -41 -17 -3 -34 0 -44 9 -14 12 -17 11 -27 -11 -10 -22 -16
-24 -62 -21 -27 1 -50 -1 -50 -4 0 -4 -17 -2 -37 5 -25 9 -42 10 -50 4 -7 -7
-14 -6 -18 2 -6 8 -10 7 -17 -5 -12 -22 -41 -20 -55 3 -12 19 -14 19 -54 3
-28 -11 -44 -13 -46 -6 -4 12 -50 6 -59 -7 -10 -17 -26 -9 -21 10 7 27 -28 34
-70 14 -23 -11 -44 -13 -70 -7 -21 4 -47 6 -57 5 -24 -3 -61 15 -104 51 -19
17 -45 28 -62 28 -15 0 -35 3 -44 6 -10 4 -16 1 -16 -9 0 -10 -7 -13 -20 -10
-14 4 -17 9 -11 17 7 8 4 16 -9 24 -16 10 -21 9 -30 -9 -8 -14 -19 -19 -37
-17 -31 4 -57 -27 -34 -41 17 -11 7 -45 -11 -39 -7 3 -15 15 -18 29 -5 17 -12
23 -27 21 -14 -2 -26 5 -33 18 -11 20 -11 20 -38 2 -40 -28 -129 -29 -152 -2
-13 16 -25 19 -44 14 -14 -3 -26 -11 -26 -18 0 -6 -7 -2 -15 8 -14 19 -15 19
-15 -6 0 -17 -7 -27 -20 -31 -11 -3 -20 -12 -20 -21 0 -19 -16 -21 -23 -3 -3
9 -12 8 -37 -5 -17 -10 -37 -18 -44 -18 -7 0 -21 -9 -31 -20 -24 -26 -35 -25
-61 7 -16 20 -25 24 -40 18 -17 -7 -18 -8 -1 -12 9 -3 17 -9 17 -14 0 -15 -30
-10 -56 10 -13 10 -45 22 -71 26 -47 7 -83 31 -83 57 -1 21 -47 72 -54 60 -13
-22 -66 14 -66 45 0 17 31 17 57 -2 18 -13 22 -13 33 0 7 8 29 15 49 15 27 1
42 8 61 30 13 17 31 30 40 30 9 0 20 3 24 8 4 4 12 7 18 7 6 0 15 15 22 34 13
42 41 57 34 19 -3 -17 1 -29 14 -37 20 -12 35 -11 30 3 -6 18 19 32 48 28 21
-3 32 0 36 13 9 23 -8 37 -48 40 -38 3 -50 32 -22 59 22 23 39 15 37 -18 -1
-17 3 -26 13 -26 8 0 14 7 14 15 0 20 13 19 34 -4 14 -15 15 -24 7 -40 -13
-24 -14 -31 -2 -31 5 0 13 9 16 20 9 29 23 24 42 -15 19 -41 30 -44 36 -12 l4
22 2 -22 c1 -29 21 -30 21 -2 0 27 31 79 47 79 7 0 13 -9 13 -20 0 -24 15 -26
24 -4 4 10 -3 25 -19 40 -14 13 -25 30 -25 39 0 21 20 19 21 -2 0 -12 2 -13 6
-5 3 7 16 17 29 22 20 8 23 15 20 42 -2 24 -8 33 -22 33 -11 0 -19 -7 -19 -17
0 -20 -15 -37 -15 -17 -1 13 -54 79 -64 79 -2 0 -9 -14 -15 -30 -6 -18 -21
-34 -38 -41 -15 -6 -30 -11 -32 -12 -2 -1 -6 9 -8 23 -3 22 -39 61 -53 59 -3
-1 -23 -12 -45 -24z m148 -91 c27 -10 20 -25 -10 -21 -17 2 -29 11 -31 21 -3
12 1 16 10 12 7 -3 21 -9 31 -12z m72 -54 c3 -5 2 -10 -4 -10 -5 0 -13 5 -16
10 -3 6 -2 10 4 10 5 0 13 -4 16 -10z m-680 -9 c3 -5 1 -12 -5 -16 -5 -3 -10
1 -10 9 0 18 6 21 15 7z m-65 -17 c0 -17 -22 -14 -28 4 -2 7 3 12 12 12 9 0
16 -7 16 -16z m2520 -44 c0 -5 -2 -10 -4 -10 -3 0 -8 5 -11 10 -3 6 -1 10 4
10 6 0 11 -4 11 -10z m-2490 -170 c0 -5 -7 -10 -16 -10 -8 0 -12 5 -9 10 3 6
10 10 16 10 5 0 9 -4 9 -10z m2640 -16 c0 -2 -9 -4 -21 -4 -11 0 -18 4 -14 10
5 8 35 3 35 -6z m-2869 -47 c-10 -9 -11 -8 -5 6 3 10 9 15 12 12 3 -3 0 -11
-7 -18z m349 -7 c0 -5 -2 -10 -4 -10 -3 0 -8 5 -11 10 -3 6 -1 10 4 10 6 0 11
-4 11 -10z m-260 -20 c0 -5 -4 -10 -10 -10 -5 0 -10 5 -10 10 0 6 5 10 10 10
6 0 10 -4 10 -10z m1440 -81 c0 -5 -4 -9 -10 -9 -5 0 -10 7 -10 16 0 8 5 12
10 9 6 -3 10 -10 10 -16z m374 -71 c7 -5 4 -8 -6 -8 -12 0 -18 7 -17 23 0 15
2 17 6 7 3 -8 11 -18 17 -22z m-1079 -107 c-5 -25 -11 -31 -34 -31 -70 0 -82
66 -13 72 47 4 56 -3 47 -41z m-348 -183 c-3 -8 -6 -5 -6 6 -1 11 2 17 5 13 3
-3 4 -12 1 -19z m523 -59 c0 -6 -4 -7 -10 -4 -5 3 -10 11 -10 16 0 6 5 7 10 4
6 -3 10 -11 10 -16z m-80 -14 c0 -9 -6 -12 -15 -9 -8 4 -12 10 -9 15 8 14 24
10 24 -6z m490 -9 c0 -3 -4 -8 -10 -11 -5 -3 -10 -1 -10 4 0 6 5 11 10 11 6 0
10 -2 10 -4z m-450 -45 c0 -12 -20 -25 -27 -18 -7 7 6 27 18 27 5 0 9 -4 9 -9z"/>
<path d="M5786 4122 c-3 -6 -1 -14 5 -17 15 -10 25 3 12 16 -7 7 -13 7 -17 1z"/>
<path d="M5950 4081 c0 -11 4 -22 10 -26 5 -3 7 -12 3 -20 -3 -10 1 -15 11
-15 13 0 15 6 10 27 -4 15 -13 34 -21 41 -11 11 -13 10 -13 -7z"/>
<path d="M9285 4070 c-8 -13 4 -32 16 -25 12 8 12 35 0 35 -6 0 -13 -4 -16
-10z"/>
<path d="M5235 4061 c-7 -12 12 -24 25 -16 11 7 4 25 -10 25 -5 0 -11 -4 -15
-9z"/>
<path d="M5880 4061 c0 -5 8 -11 18 -15 9 -3 24 -9 32 -12 8 -4 3 3 -12 15
-28 23 -38 26 -38 12z"/>
<path d="M4022 4029 c2 -6 8 -10 13 -10 5 0 11 4 13 10 2 6 -4 11 -13 11 -9 0
-15 -5 -13 -11z"/>
<path d="M6732 4019 c2 -7 10 -15 17 -17 8 -3 12 1 9 9 -2 7 -10 15 -17 17 -8
3 -12 -1 -9 -9z"/>
<path d="M7236 3994 c-8 -22 -1 -28 19 -17 14 8 14 11 2 22 -12 9 -16 8 -21
-5z"/>
<path d="M7385 3970 c3 -5 14 -10 23 -10 15 0 15 2 2 10 -20 13 -33 13 -25 0z"/>
<path d="M5860 3953 c0 -13 28 -49 33 -43 3 3 7 14 9 25 2 14 -3 21 -19 23
-13 2 -23 -1 -23 -5z"/>
<path d="M7190 3940 c0 -5 5 -10 11 -10 5 0 7 5 4 10 -3 6 -8 10 -11 10 -2 0
-4 -4 -4 -10z"/>
<path d="M4055 3909 c-10 -15 3 -25 16 -12 7 7 7 13 1 17 -6 3 -14 1 -17 -5z"/>
<path d="M4020 3850 c0 -5 5 -10 10 -10 6 0 10 5 10 10 0 6 -4 10 -10 10 -5 0
-10 -4 -10 -10z"/>
<path d="M5450 3800 c-8 -5 -10 -10 -5 -10 6 0 17 5 25 10 8 5 11 10 5 10 -5
0 -17 -5 -25 -10z"/>
<path d="M4665 3780 c-7 -12 2 -30 16 -30 12 0 12 27 0 35 -5 3 -12 1 -16 -5z"/>
<path d="M6025 3690 c-3 -5 -1 -10 4 -10 6 0 11 5 11 10 0 6 -2 10 -4 10 -3 0
-8 -4 -11 -10z"/>
<path d="M9320 3690 c0 -5 5 -10 10 -10 6 0 10 5 10 10 0 6 -4 10 -10 10 -5 0
-10 -4 -10 -10z"/>
<path d="M5905 3660 c-3 -5 3 -10 14 -10 12 0 21 5 21 10 0 6 -6 10 -14 10 -8
0 -18 -4 -21 -10z"/>
<path d="M6371 3642 c-8 -3 -1 -10 19 -18 18 -8 35 -12 38 -9 3 3 0 5 -6 5 -6
0 -17 6 -24 13 -7 8 -19 12 -27 9z"/>
<path d="M9235 3600 c3 -5 12 -10 20 -10 8 0 17 5 20 10 4 6 -5 10 -20 10 -15
0 -24 -4 -20 -10z"/>
<path d="M9236 3371 c-7 -10 22 -37 30 -28 9 8 -3 37 -15 37 -5 0 -12 -4 -15
-9z"/>
<path d="M9141 3344 c0 -11 3 -14 6 -6 3 7 2 16 -1 19 -3 4 -6 -2 -5 -13z"/>
<path d="M9150 3290 c0 -5 5 -10 11 -10 5 0 7 5 4 10 -3 6 -8 10 -11 10 -2 0
-4 -4 -4 -10z"/>
<path d="M9150 3255 c-15 -19 -11 -25 12 -16 11 4 14 11 9 19 -6 10 -10 10
-21 -3z"/>
<path d="M4280 3174 c0 -8 5 -12 10 -9 6 3 10 10 10 16 0 5 -4 9 -10 9 -5 0
-10 -7 -10 -16z"/>
<path d="M7165 3110 c-3 -5 1 -10 9 -10 9 0 16 5 16 10 0 6 -4 10 -9 10 -6 0
-13 -4 -16 -10z"/>
<path d="M4246 3102 c-7 -11 23 -47 31 -37 5 4 3 10 -4 12 -7 2 -9 11 -6 19 5
14 -12 20 -21 6z"/>
<path d="M4316 2923 c-12 -12 -6 -33 9 -33 8 0 15 6 15 14 0 17 -14 28 -24 19z"/>
<path d="M5877 2854 c-4 -4 -7 -14 -7 -23 0 -11 3 -12 11 -4 6 6 10 16 7 23
-2 6 -7 8 -11 4z"/>
<path d="M5940 2806 c0 -8 5 -18 10 -21 6 -3 10 1 10 9 0 8 -4 18 -10 21 -5 3
-10 -1 -10 -9z"/>
<path d="M4367 2803 c-11 -10 -8 -43 3 -43 6 0 10 11 10 25 0 26 -2 29 -13 18z"/>
<path d="M6016 2755 c4 -8 13 -15 21 -15 12 0 12 2 -1 15 -8 8 -17 15 -20 15
-3 0 -3 -7 0 -15z"/>
<path d="M8554 2545 c-8 -20 3 -48 18 -43 16 6 17 46 1 52 -8 3 -16 -1 -19 -9z"/>
<path d="M5984 2446 c-3 -8 -1 -23 5 -34 6 -11 7 -22 4 -26 -4 -4 2 -9 14 -12
18 -5 20 -10 13 -34 -11 -39 -4 -42 44 -18 22 11 58 21 79 21 37 0 37 0 22 23
-13 21 -13 24 3 33 16 10 16 10 0 11 -9 0 -21 7 -26 17 -9 14 -10 14 -16 -5
-7 -22 -26 -31 -26 -12 0 6 -13 10 -29 10 -17 0 -33 -4 -36 -10 -3 -5 -13 -10
-22 -10 -11 0 -14 6 -9 24 7 27 -11 46 -20 22z"/>
<path d="M6370 2411 c-7 -15 -19 -21 -38 -19 -15 1 -37 -4 -49 -10 -34 -19
-44 -15 -37 13 5 21 3 25 -16 25 -15 0 -20 -4 -16 -15 3 -8 -2 -18 -11 -23
-14 -8 -14 -10 1 -15 9 -4 16 -13 16 -22 0 -8 5 -15 11 -15 6 0 9 -7 5 -15 -3
-10 1 -15 13 -15 11 0 21 9 25 22 8 33 26 10 32 -42 3 -23 12 -49 20 -57 7 -8
14 -21 14 -29 0 -21 49 -42 60 -25 4 8 12 11 18 7 5 -3 23 1 38 9 37 19 50 19
58 0 7 -19 26 -19 26 0 0 16 42 31 59 21 5 -4 13 -2 16 4 4 6 16 8 27 4 18 -5
20 -3 14 20 -3 14 -2 43 3 65 l9 41 -37 6 c-20 4 -40 13 -46 21 -5 7 -23 14
-39 15 -18 2 -31 9 -34 20 -6 23 -18 23 -31 1 -9 -16 -11 -16 -28 -2 -10 9
-24 14 -31 12 -7 -3 -19 0 -27 7 -11 9 -16 7 -25 -9z m239 -116 c0 -5 -4 -3
-9 5 -5 8 -9 22 -9 30 0 16 17 -16 18 -35z"/>
<path d="M6688 2373 c-4 -49 12 -96 28 -81 8 9 -7 98 -17 98 -5 0 -10 -8 -11
-17z"/>
<path d="M4595 2300 c3 -5 13 -10 21 -10 8 0 14 5 14 10 0 6 -9 10 -21 10 -11
0 -17 -4 -14 -10z"/>
<path d="M8365 2300 c3 -5 10 -10 16 -10 5 0 9 5 9 10 0 6 -7 10 -16 10 -8 0
-12 -4 -9 -10z"/>
<path d="M6015 2230 c-3 -5 -1 -10 4 -10 6 0 11 5 11 10 0 6 -2 10 -4 10 -3 0
-8 -4 -11 -10z"/>
<path d="M4642 2211 c4 -13 18 -16 19 -4 0 4 -5 9 -11 12 -7 2 -11 -2 -8 -8z"/>
<path d="M5302 1749 c6 -16 12 -29 13 -27 6 6 -8 58 -16 58 -4 0 -3 -14 3 -31z"/>
<path d="M5315 1690 c3 -5 8 -10 11 -10 2 0 4 5 4 10 0 6 -5 10 -11 10 -5 0
-7 -4 -4 -10z"/>
<path d="M5520 1490 c0 -5 5 -10 10 -10 6 0 10 5 10 10 0 6 -4 10 -10 10 -5 0
-10 -4 -10 -10z"/>
<path d="M2750 6410 c0 -5 5 -10 10 -10 6 0 10 5 10 10 0 6 -4 10 -10 10 -5 0
-10 -4 -10 -10z"/>
<path d="M10390 5064 c0 -8 5 -12 10 -9 6 4 8 11 5 16 -9 14 -15 11 -15 -7z"/>
<path d="M10102 4726 c1 -10 8 -17 13 -17 15 1 12 24 -3 29 -9 3 -13 -2 -10
-12z"/>
<path d="M10030 4700 c0 -5 5 -10 11 -10 5 0 7 5 4 10 -3 6 -8 10 -11 10 -2 0
-4 -4 -4 -10z"/>
<path d="M10140 4680 c0 -20 5 -30 15 -30 23 0 30 4 27 15 -2 6 -4 15 -5 20
-2 11 -18 25 -29 25 -5 0 -8 -13 -8 -30z"/>
<path d="M10085 4650 c-3 -5 1 -10 9 -10 9 0 16 5 16 10 0 6 -4 10 -9 10 -6 0
-13 -4 -16 -10z"/>
<path d="M10100 4610 c0 -5 7 -10 16 -10 8 0 12 5 9 10 -3 6 -10 10 -16 10 -5
0 -9 -4 -9 -10z"/>
<path d="M10120 4540 c0 -5 4 -10 9 -10 6 0 13 5 16 10 3 6 -1 10 -9 10 -9 0
-16 -4 -16 -10z"/>
<path d="M10100 4439 c0 -5 5 -7 10 -4 6 3 10 8 10 11 0 2 -4 4 -10 4 -5 0
-10 -5 -10 -11z"/>
<path d="M8178 803 c7 -3 16 -2 19 1 4 3 -2 6 -13 5 -11 0 -14 -3 -6 -6z"/>
<path d="M8125 771 c-3 -5 -1 -12 4 -15 12 -8 41 3 41 15 0 12 -37 12 -45 0z"/>
<path d="M8100 735 c0 -8 7 -15 15 -15 8 0 15 4 15 9 0 5 -7 11 -15 15 -9 3
-15 0 -15 -9z"/>
<path d="M8230 740 c0 -5 5 -10 10 -10 6 0 10 5 10 10 0 6 -4 10 -10 10 -5 0
-10 -4 -10 -10z"/>
<path d="M5330 690 c0 -5 4 -10 9 -10 6 0 13 5 16 10 3 6 -1 10 -9 10 -9 0
-16 -4 -16 -10z"/>
<path d="M5034 664 c9 -8 21 -12 27 -8 13 7 -7 24 -29 24 -10 0 -10 -4 2 -16z"/>
<path d="M8090 670 c0 -5 7 -10 15 -10 8 0 15 5 15 10 0 6 -7 10 -15 10 -8 0
-15 -4 -15 -10z"/>
<path d="M8000 645 c0 -8 5 -15 10 -15 6 0 10 7 10 15 0 8 -4 15 -10 15 -5 0
-10 -7 -10 -15z"/>
<path d="M4907 631 c-17 -6 -17 -8 -3 -20 9 -7 16 -20 16 -28 0 -22 25 -10 28
14 4 25 -17 43 -41 34z"/>
<path d="M8203 633 c-7 -2 -13 -15 -13 -28 0 -23 1 -23 30 -9 33 17 38 29 14
38 -9 3 -16 6 -17 5 -1 0 -8 -3 -14 -6z"/>
<path d="M5626 604 c-12 -12 -14 -20 -7 -27 15 -15 43 13 32 31 -6 11 -11 10
-25 -4z"/>
<path d="M8080 595 c0 -8 5 -15 10 -15 6 0 10 7 10 15 0 8 -4 15 -10 15 -5 0
-10 -7 -10 -15z"/>
<path d="M8145 590 c3 -5 8 -10 11 -10 2 0 4 5 4 10 0 6 -5 10 -11 10 -5 0 -7
-4 -4 -10z"/>
<path d="M5750 537 c0 -21 34 -47 49 -38 10 7 9 13 -5 30 -21 24 -44 28 -44 8z"/>
<path d="M6085 470 c-3 -5 -1 -10 4 -10 6 0 11 5 11 10 0 6 -2 10 -4 10 -3 0
-8 -4 -11 -10z"/>
<path d="M6139 455 c-1 -3 -2 -10 -3 -15 0 -6 -7 -14 -14 -19 -10 -6 -9 -10 7
-14 18 -4 21 -1 21 24 0 25 -7 40 -11 24z"/>
<path d="M6195 450 c3 -5 15 -10 26 -10 11 0 17 5 14 10 -3 6 -15 10 -26 10
-11 0 -17 -4 -14 -10z"/>
<path d="M6030 435 c0 -7 -10 -15 -22 -17 -13 -2 -22 -7 -21 -13 4 -19 32 -16
52 4 25 25 25 27 6 35 -9 3 -15 0 -15 -9z"/>
<path d="M5780 420 c0 -5 7 -10 15 -10 8 0 15 5 15 10 0 6 -7 10 -15 10 -8 0
-15 -4 -15 -10z"/>
<path d="M6347 424 c-4 -4 -7 -18 -7 -31 0 -18 5 -24 18 -21 10 2 17 12 17 27
0 24 -15 37 -28 25z"/>
<path d="M6245 410 c-3 -5 -1 -10 4 -10 6 0 11 5 11 10 0 6 -2 10 -4 10 -3 0
-8 -4 -11 -10z"/>
<path d="M6240 384 c1 -24 60 -67 60 -44 0 6 -4 10 -10 10 -5 0 -18 10 -30 22
-11 12 -20 18 -20 12z"/>
<path d="M6420 375 c-11 -13 -9 -15 15 -15 16 0 25 5 23 12 -7 19 -24 20 -38
3z"/>
<path d="M6477 363 c-10 -16 11 -39 23 -27 8 8 7 14 -4 23 -8 7 -17 8 -19 4z"/>
<path d="M5675 341 c-6 -11 9 -23 19 -14 9 9 7 23 -3 23 -6 0 -12 -4 -16 -9z"/>
<path d="M6235 327 c-4 -16 -1 -34 8 -48 15 -20 15 -19 10 22 -7 54 -10 59
-18 26z"/>
<path d="M5990 301 c0 -5 5 -13 10 -16 6 -3 10 -2 10 4 0 5 -4 13 -10 16 -5 3
-10 2 -10 -4z"/>
<path d="M6875 290 c-10 -17 12 -37 25 -24 8 8 6 15 -4 23 -10 9 -16 9 -21 1z"/>
<path d="M7616 293 c-11 -11 -6 -23 9 -23 8 0 15 4 15 9 0 13 -16 22 -24 14z"/>
<path d="M6335 270 c-4 -6 -3 -16 3 -22 6 -6 12 -6 17 2 4 6 3 16 -3 22 -6 6
-12 6 -17 -2z"/>
<path d="M6395 271 c-3 -5 -1 -12 5 -16 5 -3 10 1 10 9 0 18 -6 21 -15 7z"/>
<path d="M6812 238 c2 -22 9 -34 21 -36 26 -5 23 44 -4 58 -19 11 -20 9 -17
-22z"/>
<path d="M6725 233 c-4 -13 -14 -23 -21 -23 -8 0 -14 -4 -14 -10 0 -14 13 -13
34 3 11 8 16 21 13 33 -5 18 -5 17 -12 -3z"/>
<path d="M6515 220 c3 -5 10 -10 16 -10 5 0 9 5 9 10 0 6 -7 10 -16 10 -8 0
-12 -4 -9 -10z"/>
<path d="M6780 201 c0 -5 5 -13 10 -16 6 -3 10 -2 10 4 0 5 -4 13 -10 16 -5 3
-10 2 -10 -4z"/>
<path d="M7450 204 c0 -18 24 -44 40 -44 15 0 20 7 20 25 0 21 -5 25 -30 25
-16 0 -30 -3 -30 -6z"/>
<path d="M6906 167 c-14 -10 -16 -20 -11 -38 l8 -24 9 28 c5 15 14 27 19 27 5
0 9 5 9 10 0 14 -13 13 -34 -3z"/>
<path d="M6835 141 c3 -11 1 -22 -5 -26 -5 -3 -10 -12 -10 -20 0 -11 6 -11 30
-2 19 7 30 18 30 30 0 16 -3 17 -15 7 -13 -10 -15 -9 -15 9 0 11 -5 21 -11 21
-6 0 -8 -8 -4 -19z"/>
<path d="M6410 125 c0 -8 7 -15 15 -15 8 0 15 7 15 15 0 8 -7 15 -15 15 -8 0
-15 -7 -15 -15z"/>
<path d="M7506 133 c-11 -11 -6 -23 9 -23 8 0 15 4 15 9 0 13 -16 22 -24 14z"/>
<path d="M6670 100 c0 -5 7 -10 15 -10 8 0 15 5 15 10 0 6 -7 10 -15 10 -8 0
-15 -4 -15 -10z"/>
<path d="M6765 100 c3 -5 10 -10 16 -10 5 0 9 5 9 10 0 6 -7 10 -16 10 -8 0
-12 -4 -9 -10z"/>
<path d="M6730 69 c0 -5 5 -7 10 -4 6 3 10 8 10 11 0 2 -4 4 -10 4 -5 0 -10
-5 -10 -11z"/>
<path d="M6836 51 c-4 -5 -2 -12 3 -15 5 -4 12 -2 15 3 4 5 2 12 -3 15 -5 4
-12 2 -15 -3z"/>
<path d="M6630 40 c0 -5 12 -10 28 -9 24 0 25 1 7 9 -27 12 -35 12 -35 0z"/>
</g>
</svg>
